<svg viewBox="0 0 60 60" fill="none" xmlns="http://www.w3.org/2000/svg">
<path d="M57.7726 43.387V1.66699H0.892578V43.387H43.6392V50.747H0.892578V53.667H57.7726V50.747H47.2926V43.387H57.7726Z" fill="white"/>
<path d="M53.9864 5.4541H4.67969V39.5874H53.9864V5.4541Z" fill="white"/>
<path d="M53.9867 40.2671H4.65333C4.48979 40.2647 4.33286 40.2022 4.21239 40.0915C4.09193 39.9809 4.01634 39.8299 4 39.6671V5.45377C4 5.27696 4.07024 5.10739 4.19526 4.98237C4.32029 4.85734 4.48986 4.78711 4.66667 4.78711H54C54.1768 4.78711 54.3464 4.85734 54.4714 4.98237C54.5964 5.10739 54.6667 5.27696 54.6667 5.45377V39.6671C54.6499 39.8345 54.5705 39.9893 54.4444 40.1005C54.3183 40.2118 54.1548 40.2713 53.9867 40.2671ZM5.33333 38.9204H53.3333V6.13377H5.33333V38.9204Z" fill="#0F172A"/>
<path d="M49.2397 35.5199H48.5729C48.3961 35.5199 48.2266 35.4496 48.1016 35.3246C47.9766 35.1996 47.9062 35.03 47.9062 34.8532C47.9062 34.6764 47.9766 34.5068 48.1016 34.3818C48.2266 34.2568 48.3961 34.1865 48.5729 34.1865H49.2397C49.4165 34.1865 49.586 34.2568 49.711 34.3818C49.836 34.5068 49.9062 34.6764 49.9062 34.8532C49.9062 35.03 49.836 35.1996 49.711 35.3246C49.586 35.4496 49.4165 35.5199 49.2397 35.5199Z" fill="#0F172A"/>
<path d="M45.9199 35.5199H44.5866C44.4098 35.5199 44.2402 35.4496 44.1152 35.3246C43.9902 35.1996 43.9199 35.03 43.9199 34.8532C43.9199 34.6764 43.9902 34.5068 44.1152 34.3818C44.2402 34.2568 44.4098 34.1865 44.5866 34.1865H45.9199C46.0967 34.1865 46.2663 34.2568 46.3913 34.3818C46.5164 34.5068 46.5866 34.6764 46.5866 34.8532C46.5866 35.03 46.5164 35.1996 46.3913 35.3246C46.2663 35.4496 46.0967 35.5199 45.9199 35.5199ZM41.9199 35.5199H40.5866C40.4098 35.5199 40.2402 35.4496 40.1152 35.3246C39.9902 35.1996 39.9199 35.03 39.9199 34.8532C39.9199 34.6764 39.9902 34.5068 40.1152 34.3818C40.2402 34.2568 40.4098 34.1865 40.5866 34.1865H41.9199C42.0967 34.1865 42.2663 34.2568 42.3913 34.3818C42.5164 34.5068 42.5866 34.6764 42.5866 34.8532C42.5866 35.03 42.5164 35.1996 42.3913 35.3246C42.2663 35.4496 42.0967 35.5199 41.9199 35.5199ZM37.9199 35.5199H36.5866C36.4098 35.5199 36.2402 35.4496 36.1152 35.3246C35.9902 35.1996 35.9199 35.03 35.9199 34.8532C35.9199 34.6764 35.9902 34.5068 36.1152 34.3818C36.2402 34.2568 36.4098 34.1865 36.5866 34.1865H37.9199C38.0967 34.1865 38.2663 34.2568 38.3913 34.3818C38.5164 34.5068 38.5866 34.6764 38.5866 34.8532C38.5866 35.03 38.5164 35.1996 38.3913 35.3246C38.2663 35.4496 38.0967 35.5199 37.9199 35.5199ZM33.9199 35.5199H32.5866C32.4098 35.5199 32.2402 35.4496 32.1152 35.3246C31.9902 35.1996 31.9199 35.03 31.9199 34.8532C31.9199 34.6764 31.9902 34.5068 32.1152 34.3818C32.2402 34.2568 32.4098 34.1865 32.5866 34.1865H33.9199C34.0967 34.1865 34.2663 34.2568 34.3913 34.3818C34.5164 34.5068 34.5866 34.6764 34.5866 34.8532C34.5866 35.03 34.5164 35.1996 34.3913 35.3246C34.2663 35.4496 34.0967 35.5199 33.9199 35.5199ZM29.9199 35.5199H28.5866C28.4098 35.5199 28.2402 35.4496 28.1152 35.3246C27.9902 35.1996 27.9199 35.03 27.9199 34.8532C27.9199 34.6764 27.9902 34.5068 28.1152 34.3818C28.2402 34.2568 28.4098 34.1865 28.5866 34.1865H29.9199C30.0967 34.1865 30.2663 34.2568 30.3913 34.3818C30.5164 34.5068 30.5866 34.6764 30.5866 34.8532C30.5866 35.03 30.5164 35.1996 30.3913 35.3246C30.2663 35.4496 30.0967 35.5199 29.9199 35.5199ZM25.9199 35.5199H24.5866C24.4098 35.5199 24.2402 35.4496 24.1152 35.3246C23.9902 35.1996 23.9199 35.03 23.9199 34.8532C23.9199 34.6764 23.9902 34.5068 24.1152 34.3818C24.2402 34.2568 24.4098 34.1865 24.5866 34.1865H25.9199C26.0967 34.1865 26.2663 34.2568 26.3913 34.3818C26.5164 34.5068 26.5866 34.6764 26.5866 34.8532C26.5866 35.03 26.5164 35.1996 26.3913 35.3246C26.2663 35.4496 26.0967 35.5199 25.9199 35.5199ZM21.9199 35.5199H20.5866C20.4098 35.5199 20.2402 35.4496 20.1152 35.3246C19.9902 35.1996 19.9199 35.03 19.9199 34.8532C19.9199 34.6764 19.9902 34.5068 20.1152 34.3818C20.2402 34.2568 20.4098 34.1865 20.5866 34.1865H21.9199C22.0967 34.1865 22.2663 34.2568 22.3913 34.3818C22.5164 34.5068 22.5866 34.6764 22.5866 34.8532C22.5866 35.03 22.5164 35.1996 22.3913 35.3246C22.2663 35.4496 22.0967 35.5199 21.9199 35.5199ZM17.9199 35.5199H16.5866C16.4098 35.5199 16.2402 35.4496 16.1152 35.3246C15.9902 35.1996 15.9199 35.03 15.9199 34.8532C15.9199 34.6764 15.9902 34.5068 16.1152 34.3818C16.2402 34.2568 16.4098 34.1865 16.5866 34.1865H17.9199C18.0967 34.1865 18.2663 34.2568 18.3913 34.3818C18.5164 34.5068 18.5866 34.6764 18.5866 34.8532C18.5866 35.03 18.5164 35.1996 18.3913 35.3246C18.2663 35.4496 18.0967 35.5199 17.9199 35.5199ZM13.9199 35.5199H12.5866C12.4098 35.5199 12.2402 35.4496 12.1152 35.3246C11.9902 35.1996 11.9199 35.03 11.9199 34.8532C11.9199 34.6764 11.9902 34.5068 12.1152 34.3818C12.2402 34.2568 12.4098 34.1865 12.5866 34.1865H13.9199C14.0967 34.1865 14.2663 34.2568 14.3913 34.3818C14.5164 34.5068 14.5866 34.6764 14.5866 34.8532C14.5866 35.03 14.5164 35.1996 14.3913 35.3246C14.2663 35.4496 14.0967 35.5199 13.9199 35.5199Z" fill="#0F172A"/>
<path d="M10.0928 35.5209H9.42609C9.33743 35.5227 9.2493 35.5068 9.16688 35.4741C9.08445 35.4414 9.00937 35.3925 8.94605 35.3305C8.88272 35.2684 8.83242 35.1943 8.79809 35.1125C8.76375 35.0308 8.74608 34.943 8.74609 34.8543V34.1876C8.77705 34.0336 8.86037 33.8951 8.9819 33.7955C9.10343 33.696 9.25567 33.6416 9.41276 33.6416C9.56985 33.6416 9.72209 33.696 9.84362 33.7955C9.96515 33.8951 10.0485 34.0336 10.0794 34.1876C10.2562 34.1876 10.4258 34.2578 10.5508 34.3829C10.6759 34.5079 10.7461 34.6775 10.7461 34.8543C10.7461 35.0311 10.6759 35.2007 10.5508 35.3257C10.4258 35.4507 10.2562 35.5209 10.0794 35.5209H10.0928Z" fill="#0F172A"/>
<path d="M9.42576 32.1068C9.33709 32.1085 9.24897 32.0926 9.16654 32.0599C9.08411 32.0272 9.00903 31.9784 8.94571 31.9163C8.88238 31.8542 8.83208 31.7801 8.79775 31.6983C8.76341 31.6166 8.74574 31.5288 8.74576 31.4401V30.1068C8.77671 29.9528 8.86003 29.8142 8.98156 29.7147C9.10309 29.6151 9.25533 29.5608 9.41242 29.5608C9.56951 29.5608 9.72175 29.6151 9.84328 29.7147C9.96481 29.8142 10.0481 29.9528 10.0791 30.1068V31.4401C10.0791 31.6146 10.0107 31.7822 9.88857 31.9068C9.76641 32.0315 9.60025 32.1033 9.42576 32.1068ZM9.42576 28.0001C9.2477 28.0001 9.07673 27.9303 8.94958 27.8057C8.82243 27.681 8.74925 27.5115 8.74576 27.3334V26.0001C8.77671 25.8461 8.86003 25.7075 8.98156 25.608C9.10309 25.5085 9.25533 25.4541 9.41242 25.4541C9.56951 25.4541 9.72175 25.5085 9.84328 25.608C9.96481 25.7075 10.0481 25.8461 10.0791 26.0001V27.3334C10.0758 27.5069 10.0063 27.6726 9.88488 27.7966C9.76341 27.9205 9.59916 27.9933 9.42576 28.0001ZM9.42576 23.8801C9.33709 23.8819 9.24897 23.8659 9.16654 23.8332C9.08411 23.8005 9.00903 23.7517 8.94571 23.6896C8.88238 23.6275 8.83208 23.5534 8.79775 23.4717C8.76341 23.3899 8.74574 23.3021 8.74576 23.2134V21.8801C8.77671 21.7261 8.86003 21.5876 8.98156 21.488C9.10309 21.3885 9.25533 21.3341 9.41242 21.3341C9.56951 21.3341 9.72175 21.3885 9.84328 21.488C9.96481 21.5876 10.0481 21.7261 10.0791 21.8801V23.2134C10.0791 23.388 10.0107 23.5555 9.88857 23.6802C9.76641 23.8048 9.60025 23.8766 9.42576 23.8801ZM9.42576 19.7734C9.2477 19.7735 9.07673 19.7037 8.94958 19.579C8.82243 19.4543 8.74925 19.2848 8.74576 19.1068V17.7734C8.72592 17.6747 8.72824 17.5729 8.75255 17.4752C8.77687 17.3775 8.82256 17.2865 8.88634 17.2086C8.95012 17.1307 9.0304 17.0679 9.12138 17.0249C9.21235 16.9818 9.31176 16.9594 9.41242 16.9594C9.51308 16.9594 9.61249 16.9818 9.70347 17.0249C9.79444 17.0679 9.87472 17.1307 9.9385 17.2086C10.0023 17.2865 10.048 17.3775 10.0723 17.4752C10.0966 17.5729 10.0989 17.6747 10.0791 17.7734V19.1068C10.0758 19.2803 10.0063 19.446 9.88488 19.5699C9.76341 19.6938 9.59916 19.7667 9.42576 19.7734ZM9.42576 15.6534C9.33709 15.6552 9.24897 15.6393 9.16654 15.6066C9.08411 15.5739 9.00903 15.525 8.94571 15.4629C8.88238 15.4009 8.83208 15.3268 8.79775 15.245C8.76341 15.1632 8.74574 15.0754 8.74576 14.9868V13.6534C8.77671 13.4994 8.86003 13.3609 8.98156 13.2614C9.10309 13.1618 9.25533 13.1074 9.41242 13.1074C9.56951 13.1074 9.72175 13.1618 9.84328 13.2614C9.96481 13.3609 10.0481 13.4994 10.0791 13.6534V14.9868C10.0809 15.0743 10.0654 15.1614 10.0335 15.2429C10.0016 15.3245 9.95397 15.399 9.8933 15.4621C9.83262 15.5253 9.76011 15.5758 9.67989 15.611C9.59966 15.6461 9.51331 15.665 9.42576 15.6668V15.6534Z" fill="#0F172A"/>
<path d="M9.42609 11.5336C9.33743 11.5354 9.2493 11.5195 9.16687 11.4868C9.08445 11.4541 9.00937 11.4052 8.94605 11.3432C8.88272 11.2811 8.83242 11.207 8.79809 11.1252C8.76375 11.0434 8.74608 10.9557 8.74609 10.867V10.2003C8.77705 10.0463 8.86037 9.90776 8.9819 9.80823C9.10343 9.70869 9.25567 9.6543 9.41276 9.6543C9.56985 9.6543 9.72209 9.70869 9.84362 9.80823C9.96515 9.90776 10.0485 10.0463 10.0794 10.2003V10.867C10.0795 11.0415 10.0111 11.2091 9.8889 11.3337C9.76675 11.4584 9.60058 11.5301 9.42609 11.5336Z" fill="#0F172A"/>
<path d="M9.42745 31.4539C9.27903 31.4516 9.13542 31.4009 9.01856 31.3093C8.90169 31.2178 8.81798 31.0906 8.7802 30.947C8.74243 30.8035 8.75266 30.6515 8.80934 30.5143C8.86602 30.3771 8.96603 30.2623 9.09411 30.1872L17.9741 25.3206C18.0665 25.2715 18.1695 25.2459 18.2741 25.2459C18.3787 25.2459 18.4817 25.2715 18.5741 25.3206L23.9074 27.8672L29.3474 21.7206C29.451 21.604 29.5929 21.5283 29.7474 21.5072L41.3874 19.6006L48.8674 15.6006C48.9449 15.5521 49.0315 15.52 49.1219 15.5064C49.2123 15.4929 49.3045 15.498 49.3928 15.5215C49.4811 15.5451 49.5637 15.5865 49.6353 15.6433C49.7069 15.7001 49.7661 15.771 49.8091 15.8516C49.8522 15.9322 49.8782 16.0209 49.8856 16.112C49.893 16.2031 49.8815 16.2947 49.852 16.3812C49.8224 16.4677 49.7754 16.5472 49.7139 16.6147C49.6523 16.6823 49.5775 16.7365 49.4941 16.7739L41.9208 20.7739C41.851 20.7932 41.7772 20.7932 41.7074 20.7739L30.2674 22.7606L24.6541 29.1072C24.5569 29.2139 24.4283 29.2869 24.2869 29.3157C24.1455 29.3445 23.9986 29.3275 23.8674 29.2672L18.3208 26.6006L9.74745 31.3072C9.65831 31.3877 9.54661 31.4389 9.42745 31.4539Z" fill="#0F172A"/>
<path d="M39.2805 27.0669C39.1766 27.0691 39.0738 27.0459 38.9808 26.9995C38.8879 26.953 38.8077 26.8846 38.7471 26.8002L32.2005 17.7336L22.9338 20.6402C22.8334 20.6722 22.7269 20.6804 22.6228 20.6642C22.5187 20.648 22.4197 20.6079 22.3338 20.5469L16.8538 16.6136L9.64045 19.0936C9.55728 19.1224 9.46924 19.1347 9.38134 19.1295C9.29345 19.1244 9.20742 19.102 9.12818 19.0636C9.04894 19.0252 8.97804 18.9716 8.91952 18.9058C8.861 18.8401 8.81601 18.7634 8.78712 18.6802C8.75823 18.597 8.74601 18.509 8.75114 18.4211C8.75628 18.3332 8.77868 18.2472 8.81706 18.1679C8.85544 18.0887 8.90905 18.0178 8.97484 17.9593C9.04062 17.9008 9.11728 17.8558 9.20045 17.8269L16.7338 15.1602C16.8364 15.1281 16.945 15.1198 17.0512 15.136C17.1575 15.1522 17.2587 15.1924 17.3471 15.2536L22.8405 19.2536L32.2538 16.3069C32.3876 16.2628 32.532 16.2624 32.6661 16.3055C32.8003 16.3486 32.9173 16.4331 33.0005 16.5469L39.5871 25.6669L49.1471 24.2269C49.2347 24.2138 49.324 24.218 49.4099 24.2394C49.4958 24.2607 49.5766 24.2988 49.6478 24.3514C49.719 24.4041 49.7791 24.4702 49.8248 24.546C49.8704 24.6219 49.9007 24.706 49.9138 24.7936C49.9269 24.8811 49.9227 24.9704 49.9013 25.0563C49.8799 25.1422 49.8419 25.2231 49.7892 25.2942C49.7366 25.3654 49.6705 25.4256 49.5946 25.4712C49.5188 25.5168 49.4347 25.5471 49.3471 25.5602L39.3871 27.0669H39.2805Z" fill="#0F172A"/>
<path d="M19.574 26.0139C19.5766 26.2966 19.4952 26.5738 19.34 26.8101C19.1849 27.0465 18.963 27.2314 18.7026 27.3415C18.4421 27.4515 18.1549 27.4817 17.8772 27.4281C17.5996 27.3746 17.3442 27.2398 17.1433 27.0408C16.9425 26.8418 16.8052 26.5876 16.7491 26.3105C16.693 26.0334 16.7204 25.7459 16.828 25.4844C16.9356 25.223 17.1184 24.9993 17.3533 24.842C17.5882 24.6846 17.8646 24.6006 18.1473 24.6006C18.5234 24.6006 18.8843 24.7491 19.1514 25.0137C19.4186 25.2784 19.5705 25.6379 19.574 26.0139Z" fill="white"/>
<path d="M18.1461 28.1076C17.732 28.1076 17.3273 27.9848 16.9831 27.7548C16.6388 27.5248 16.3705 27.1978 16.2121 26.8153C16.0536 26.4328 16.0122 26.0119 16.093 25.6059C16.1737 25.1998 16.3731 24.8268 16.6659 24.534C16.9586 24.2413 17.3316 24.0419 17.7377 23.9611C18.1437 23.8804 18.5646 23.9218 18.9471 24.0803C19.3297 24.2387 19.6566 24.507 19.8866 24.8512C20.1166 25.1955 20.2394 25.6002 20.2394 26.0142C20.2394 26.5694 20.0189 27.1019 19.6263 27.4944C19.2337 27.887 18.7013 28.1076 18.1461 28.1076ZM18.1461 25.2676C17.9468 25.2675 17.7555 25.3458 17.6133 25.4854C17.4712 25.6251 17.3896 25.815 17.3861 26.0142C17.3861 26.2158 17.4661 26.4091 17.6087 26.5516C17.7512 26.6942 17.9445 26.7742 18.1461 26.7742C18.3476 26.7742 18.5409 26.6942 18.6835 26.5516C18.826 26.4091 18.9061 26.2158 18.9061 26.0142C18.9026 25.815 18.821 25.6251 18.6788 25.4854C18.5367 25.3458 18.3453 25.2675 18.1461 25.2676Z" fill="#0F172A"/>
<path d="M25.533 28.6406C25.533 28.9228 25.4493 29.1986 25.2926 29.4332C25.1358 29.6678 24.913 29.8507 24.6523 29.9587C24.3916 30.0667 24.1048 30.0949 23.828 30.0399C23.5513 29.9848 23.2971 29.8489 23.0975 29.6494C22.898 29.4499 22.7621 29.1957 22.7071 28.9189C22.6521 28.6422 22.6803 28.3553 22.7883 28.0946C22.8963 27.834 23.0791 27.6111 23.3137 27.4544C23.5484 27.2976 23.8242 27.2139 24.1064 27.2139C24.2942 27.2122 24.4805 27.2478 24.6544 27.3189C24.8283 27.39 24.9863 27.495 25.1191 27.6278C25.252 27.7607 25.357 27.9186 25.428 28.0925C25.4991 28.2664 25.5348 28.4528 25.533 28.6406Z" fill="white"/>
<path d="M24.107 30.7336C23.693 30.7336 23.2883 30.6108 22.944 30.3808C22.5998 30.1507 22.3315 29.8238 22.173 29.4413C22.0146 29.0588 21.9731 28.6379 22.0539 28.2318C22.1347 27.8258 22.334 27.4528 22.6268 27.16C22.9196 26.8673 23.2925 26.6679 23.6986 26.5871C24.1047 26.5063 24.5256 26.5478 24.9081 26.7062C25.2906 26.8647 25.6175 27.133 25.8475 27.4772C26.0776 27.8215 26.2003 28.2262 26.2003 28.6402C26.2003 29.1954 25.9798 29.7279 25.5872 30.1204C25.1946 30.513 24.6622 30.7336 24.107 30.7336ZM24.107 27.8802C23.9078 27.8837 23.7179 27.9653 23.5782 28.1075C23.4385 28.2496 23.3603 28.4409 23.3603 28.6402C23.3847 28.8228 23.4745 28.9903 23.613 29.1116C23.7516 29.2329 23.9295 29.2998 24.1137 29.2998C24.2978 29.2998 24.4757 29.2329 24.6143 29.1116C24.7529 28.9903 24.8427 28.8228 24.867 28.6402C24.867 28.5404 24.8473 28.4416 24.8092 28.3494C24.771 28.2572 24.715 28.1734 24.6444 28.1028C24.5738 28.0322 24.4901 27.9763 24.3978 27.9381C24.3056 27.8999 24.2068 27.8802 24.107 27.8802Z" fill="#0F172A"/>
<path d="M31.3065 22.334C31.3065 22.6161 31.2228 22.892 31.066 23.1266C30.9093 23.3612 30.6864 23.5441 30.4257 23.652C30.1651 23.76 29.8782 23.7883 29.6015 23.7332C29.3247 23.6782 29.0705 23.5423 28.871 23.3428C28.6715 23.1432 28.5356 22.889 28.4805 22.6123C28.4255 22.3355 28.4537 22.0487 28.5617 21.788C28.6697 21.5273 28.8526 21.3045 29.0872 21.1477C29.3218 20.991 29.5976 20.9073 29.8798 20.9073C30.0676 20.9055 30.254 20.9412 30.4278 21.0123C30.6017 21.0833 30.7597 21.1884 30.8926 21.3212C31.0254 21.454 31.1304 21.612 31.2015 21.7859C31.2726 21.9598 31.3082 22.1461 31.3065 22.334Z" fill="white"/>
<path d="M29.8801 24.3603C29.4644 24.3548 29.0598 24.2257 28.7179 23.9894C28.3759 23.7531 28.112 23.4204 27.9598 23.0336C27.8076 22.6467 27.774 22.2234 27.8633 21.8174C27.9526 21.4115 28.1608 21.0413 28.4613 20.754C28.7617 20.4668 29.1409 20.2755 29.5505 20.2046C29.96 20.1336 30.3815 20.1862 30.761 20.3556C31.1406 20.5251 31.4612 20.8037 31.6818 21.1559C31.9025 21.5082 32.0133 21.9182 32.0001 22.3337C31.9826 22.8818 31.7508 23.4013 31.3543 23.7803C30.9579 24.1593 30.4285 24.3676 29.8801 24.3603ZM29.8801 21.507C29.734 21.5127 29.5927 21.5604 29.473 21.6444C29.3534 21.7284 29.2605 21.8451 29.2055 21.9806C29.1505 22.116 29.1358 22.2645 29.163 22.4081C29.1903 22.5517 29.2584 22.6844 29.3592 22.7903C29.4599 22.8962 29.5891 22.9708 29.7312 23.0051C29.8733 23.0395 30.0223 23.0321 30.1603 22.9839C30.2983 22.9357 30.4195 22.8487 30.5093 22.7334C30.5991 22.6181 30.6538 22.4793 30.6667 22.3337C30.6786 22.2256 30.6667 22.1163 30.6319 22.0134C30.5971 21.9104 30.5403 21.8163 30.4654 21.7376C30.3905 21.6589 30.2993 21.5975 30.1982 21.5576C30.0971 21.5178 29.9885 21.5005 29.8801 21.507Z" fill="#0F172A"/>
<path d="M43.0135 20.1337C43.0135 20.4159 42.9298 20.6917 42.7731 20.9263C42.6163 21.1609 42.3935 21.3438 42.1328 21.4518C41.8721 21.5598 41.5852 21.588 41.3085 21.533C41.0317 21.4779 40.7775 21.342 40.578 21.1425C40.3785 20.943 40.2426 20.6888 40.1876 20.412C40.1325 20.1353 40.1608 19.8484 40.2688 19.5877C40.3767 19.3271 40.5596 19.1042 40.7942 18.9475C41.0288 18.7907 41.3047 18.707 41.5868 18.707C41.9652 18.707 42.3281 18.8573 42.5956 19.1249C42.8632 19.3925 43.0135 19.7553 43.0135 20.1337Z" fill="white"/>
<path d="M41.5875 22.2267C41.1735 22.2267 40.7687 22.1039 40.4245 21.8739C40.0802 21.6439 39.8119 21.317 39.6535 20.9345C39.495 20.552 39.4536 20.1311 39.5344 19.725C39.6151 19.3189 39.8145 18.9459 40.1073 18.6532C40.4 18.3604 40.773 18.161 41.1791 18.0803C41.5852 17.9995 42.0061 18.041 42.3886 18.1994C42.7711 18.3578 43.098 18.6261 43.328 18.9704C43.558 19.3146 43.6808 19.7194 43.6808 20.1334C43.6808 20.6886 43.4603 21.221 43.0677 21.6136C42.6751 22.0062 42.1427 22.2267 41.5875 22.2267ZM41.5875 19.3867C41.4404 19.3893 41.2974 19.4354 41.1763 19.519C41.0553 19.6026 40.9617 19.7201 40.9072 19.8568C40.8528 19.9934 40.8399 20.1431 40.8702 20.2871C40.9005 20.431 40.9726 20.5628 41.0775 20.6659C41.1825 20.769 41.3155 20.8388 41.46 20.8665C41.6044 20.8943 41.7539 20.8787 41.8895 20.8218C42.0252 20.765 42.141 20.6693 42.2225 20.5468C42.304 20.4243 42.3474 20.2805 42.3475 20.1334C42.3475 20.0342 42.3277 19.936 42.2894 19.8445C42.251 19.7531 42.1948 19.6701 42.1241 19.6006C42.0533 19.5311 41.9694 19.4764 41.8773 19.4397C41.7852 19.4029 41.6866 19.3849 41.5875 19.3867Z" fill="#0F172A"/>
<path d="M40.7342 26.2265C40.7342 26.5087 40.6505 26.7845 40.4938 27.0192C40.337 27.2538 40.1142 27.4366 39.8535 27.5446C39.5928 27.6526 39.3059 27.6808 39.0292 27.6258C38.7524 27.5707 38.4982 27.4349 38.2987 27.2353C38.0992 27.0358 37.9633 26.7816 37.9083 26.5049C37.8532 26.2281 37.8815 25.9413 37.9895 25.6806C38.0974 25.4199 38.2803 25.1971 38.5149 25.0403C38.7495 24.8835 39.0254 24.7999 39.3075 24.7999C39.4954 24.7981 39.6817 24.8338 39.8556 24.9048C40.0295 24.9759 40.1875 25.0809 40.3203 25.2138C40.4531 25.3466 40.5582 25.5046 40.6292 25.6785C40.7003 25.8524 40.736 26.0387 40.7342 26.2265Z" fill="white"/>
<path d="M39.3062 28.3205C38.8922 28.3205 38.4875 28.1977 38.1432 27.9677C37.799 27.7377 37.5307 27.4107 37.3722 27.0282C37.2138 26.6457 37.1723 26.2248 37.2531 25.8187C37.3339 25.4127 37.5333 25.0397 37.826 24.7469C38.1188 24.4542 38.4918 24.2548 38.8978 24.174C39.3039 24.0932 39.7248 24.1347 40.1073 24.2931C40.4898 24.4516 40.8168 24.7199 41.0468 25.0641C41.2768 25.4084 41.3996 25.8131 41.3996 26.2271C41.3961 26.7812 41.1744 27.3117 40.7826 27.7035C40.3908 28.0953 39.8603 28.317 39.3062 28.3205ZM39.3062 25.4671C39.1237 25.4915 38.9562 25.5813 38.8349 25.7198C38.7135 25.8584 38.6467 26.0363 38.6467 26.2205C38.6467 26.4046 38.7135 26.5825 38.8349 26.7211C38.9562 26.8597 39.1237 26.9495 39.3062 26.9738C39.4136 26.9881 39.5227 26.9793 39.6264 26.948C39.73 26.9167 39.8258 26.8636 39.9073 26.7923C39.9888 26.7209 40.0541 26.633 40.0988 26.5344C40.1435 26.4358 40.1667 26.3288 40.1667 26.2205C40.1667 26.1122 40.1435 26.0051 40.0988 25.9065C40.0541 25.8079 39.9888 25.72 39.9073 25.6487C39.8258 25.5773 39.73 25.5242 39.6264 25.4929C39.5227 25.4616 39.4136 25.4528 39.3062 25.4671Z" fill="#0F172A"/>
<path d="M33.7057 17.0004C33.7245 17.2858 33.657 17.5703 33.512 17.8168C33.367 18.0634 33.1513 18.2607 32.8928 18.3831C32.6343 18.5055 32.345 18.5474 32.0624 18.5034C31.7798 18.4593 31.517 18.3314 31.308 18.1361C31.099 17.9408 30.9536 17.6872 30.8906 17.4082C30.8275 17.1292 30.8498 16.8377 30.9545 16.5716C31.0592 16.3054 31.2414 16.0768 31.4776 15.9156C31.7138 15.7543 31.9931 15.6677 32.2791 15.6671C32.6428 15.6631 32.994 15.7994 33.2597 16.0478C33.5254 16.2961 33.6852 16.6373 33.7057 17.0004Z" fill="white"/>
<path d="M32.2805 19.1339C31.8681 19.1339 31.4651 19.012 31.1217 18.7837C30.7784 18.5554 30.5101 18.2308 30.3506 17.8507C30.191 17.4705 30.1473 17.0516 30.2249 16.6467C30.3025 16.2418 30.4979 15.8688 30.7867 15.5745C31.0755 15.2802 31.4447 15.0777 31.8481 14.9925C32.2515 14.9073 32.6711 14.943 33.0542 15.0954C33.4373 15.2477 33.767 15.5098 34.0017 15.8487C34.2365 16.1877 34.3659 16.5884 34.3738 17.0006C34.3773 17.2784 34.3259 17.5541 34.2224 17.8119C34.1189 18.0697 33.9655 18.3045 33.771 18.5028C33.5764 18.7011 33.3445 18.8589 33.0887 18.9672C32.8329 19.0755 32.5582 19.1322 32.2805 19.1339ZM32.2805 16.2806C32.0979 16.3049 31.9304 16.3947 31.8091 16.5333C31.6878 16.6719 31.6209 16.8498 31.6209 17.0339C31.6209 17.2181 31.6878 17.396 31.8091 17.5346C31.9304 17.6731 32.0979 17.7629 32.2805 17.7873C32.3878 17.8016 32.4969 17.7928 32.6006 17.7615C32.7043 17.7302 32.8001 17.6771 32.8815 17.6058C32.963 17.5344 33.0283 17.4465 33.073 17.3479C33.1178 17.2493 33.1409 17.1422 33.1409 17.0339C33.1409 16.9257 33.1178 16.8186 33.073 16.72C33.0283 16.6214 32.963 16.5335 32.8815 16.4621C32.8001 16.3908 32.7043 16.3377 32.6006 16.3064C32.4969 16.2751 32.3878 16.2663 32.2805 16.2806Z" fill="#0F172A"/>
<path d="M24.1072 19.8801C24.1072 20.1616 24.0239 20.4369 23.8677 20.6713C23.7115 20.9056 23.4895 21.0884 23.2296 21.1968C22.9697 21.3052 22.6835 21.3342 22.4071 21.2802C22.1307 21.2262 21.8765 21.0917 21.6765 20.8935C21.4764 20.6953 21.3395 20.4423 21.283 20.1665C21.2264 19.8906 21.2528 19.6042 21.3587 19.3433C21.4647 19.0824 21.6454 18.8586 21.8783 18.7003C22.1111 18.5419 22.3857 18.456 22.6672 18.4534C22.8562 18.4498 23.044 18.4842 23.2194 18.5544C23.3949 18.6247 23.5544 18.7294 23.6887 18.8625C23.8229 18.9955 23.9292 19.1541 24.0011 19.3288C24.073 19.5036 24.1091 19.6911 24.1072 19.8801Z" fill="white"/>
<path d="M22.6676 21.9738C22.2535 21.9738 21.8488 21.851 21.5046 21.621C21.1603 21.391 20.892 21.064 20.7336 20.6815C20.5751 20.299 20.5337 19.8781 20.6144 19.4721C20.6952 19.066 20.8946 18.693 21.1873 18.4002C21.4801 18.1075 21.8531 17.9081 22.2592 17.8273C22.6652 17.7466 23.0861 17.788 23.4686 17.9465C23.8511 18.1049 24.1781 18.3732 24.4081 18.7175C24.6381 19.0617 24.7609 19.4664 24.7609 19.8805C24.7609 20.4356 24.5403 20.9681 24.1478 21.3607C23.7552 21.7532 23.2227 21.9738 22.6676 21.9738ZM22.6676 19.1338C22.4695 19.1338 22.2796 19.2125 22.1396 19.3525C21.9996 19.4925 21.9209 19.6824 21.9209 19.8805C21.9209 20.0785 21.9996 20.2684 22.1396 20.4084C22.2796 20.5485 22.4695 20.6271 22.6676 20.6271C22.8656 20.6271 23.0555 20.5485 23.1955 20.4084C23.3356 20.2684 23.4142 20.0785 23.4142 19.8805C23.4142 19.6824 23.3356 19.4925 23.1955 19.3525C23.0555 19.2125 22.8656 19.1338 22.6676 19.1338Z" fill="#0F172A"/>
<path d="M18.1463 15.8671C18.1463 16.1493 18.0626 16.4251 17.9059 16.6597C17.7491 16.8943 17.5263 17.0772 17.2656 17.1852C17.0049 17.2932 16.7181 17.3214 16.4413 17.2664C16.1646 17.2113 15.9104 17.0754 15.7108 16.8759C15.5113 16.6764 15.3754 16.4222 15.3204 16.1454C15.2653 15.8687 15.2936 15.5818 15.4016 15.3211C15.5095 15.0605 15.6924 14.8376 15.927 14.6809C16.1616 14.5241 16.4375 14.4404 16.7196 14.4404C17.098 14.4404 17.4609 14.5907 17.7284 14.8583C17.996 15.1259 18.1463 15.4887 18.1463 15.8671Z" fill="white"/>
<path d="M16.7203 17.9601C16.3063 17.9601 15.9015 17.8373 15.5573 17.6073C15.213 17.3773 14.9447 17.0504 14.7863 16.6679C14.6279 16.2854 14.5864 15.8645 14.6672 15.4584C14.7479 15.0523 14.9473 14.6793 15.2401 14.3866C15.5328 14.0938 15.9058 13.8944 16.3119 13.8137C16.718 13.7329 17.1389 13.7744 17.5214 13.9328C17.9039 14.0912 18.2308 14.3595 18.4608 14.7038C18.6908 15.048 18.8136 15.4528 18.8136 15.8668C18.8101 16.4209 18.5885 16.9513 18.1966 17.3431C17.8048 17.7349 17.2744 17.9566 16.7203 17.9601ZM16.7203 15.1201C16.5223 15.1201 16.3323 15.1988 16.1923 15.3388C16.0523 15.4788 15.9736 15.6688 15.9736 15.8668C15.9736 16.0648 16.0523 16.2547 16.1923 16.3948C16.3323 16.5348 16.5223 16.6134 16.7203 16.6134C16.9183 16.6134 17.1082 16.5348 17.2483 16.3948C17.3883 16.2547 17.467 16.0648 17.467 15.8668C17.467 15.6688 17.3883 15.4788 17.2483 15.3388C17.1082 15.1988 16.9183 15.1201 16.7203 15.1201Z" fill="#0F172A"/>
<path d="M10.8408 18.4404C10.8066 18.7933 10.6422 19.1208 10.3797 19.359C10.1172 19.5973 9.77533 19.7293 9.42081 19.7293C9.06628 19.7293 8.72446 19.5973 8.46194 19.359C8.19943 19.1208 8.03504 18.7933 8.00081 18.4404C7.98159 18.2424 8.00402 18.0425 8.06664 17.8536C8.12926 17.6648 8.23069 17.4911 8.36442 17.3438C8.49815 17.1965 8.66121 17.0787 8.84314 16.9982C9.02507 16.9176 9.22184 16.876 9.42081 16.876C9.61978 16.876 9.81655 16.9176 9.99848 16.9982C10.1804 17.0787 10.3435 17.1965 10.4772 17.3438C10.6109 17.4911 10.7124 17.6648 10.775 17.8536C10.8376 18.0425 10.86 18.2424 10.8408 18.4404Z" fill="white"/>
<path d="M9.42732 20.5334C9.0133 20.5334 8.60857 20.4106 8.26432 20.1806C7.92008 19.9505 7.65177 19.6236 7.49333 19.2411C7.33489 18.8586 7.29344 18.4377 7.37421 18.0316C7.45498 17.6256 7.65435 17.2526 7.94711 16.9598C8.23987 16.6671 8.61286 16.4677 9.01893 16.3869C9.425 16.3061 9.8459 16.3476 10.2284 16.506C10.6109 16.6645 10.9378 16.9328 11.1679 17.277C11.3979 17.6213 11.5207 18.026 11.5207 18.44C11.5207 18.9952 11.3001 19.5277 10.9075 19.9202C10.515 20.3128 9.9825 20.5334 9.42732 20.5334ZM9.42732 17.68C9.32751 17.68 9.22869 17.6997 9.13648 17.7379C9.04427 17.7761 8.96049 17.832 8.88992 17.9026C8.81934 17.9732 8.76336 18.057 8.72517 18.1492C8.68698 18.2414 8.66732 18.3402 8.66732 18.44C8.69166 18.6226 8.78146 18.7901 8.92002 18.9114C9.05859 19.0327 9.23649 19.0996 9.42065 19.0996C9.60482 19.0996 9.78272 19.0327 9.92128 18.9114C10.0598 18.7901 10.1496 18.6226 10.174 18.44C10.174 18.2407 10.0958 18.0494 9.95612 17.9073C9.81647 17.7651 9.62656 17.6835 9.42732 17.68Z" fill="#0F172A"/>
<path d="M10.8396 30.7738C10.8422 31.057 10.7605 31.3347 10.6047 31.5713C10.449 31.808 10.2263 31.9929 9.96508 32.1025C9.70385 32.2122 9.4159 32.2415 9.13792 32.1869C8.85994 32.1323 8.60451 31.9962 8.40419 31.7958C8.20387 31.5955 8.06772 31.3401 8.0131 31.0621C7.95848 30.7841 7.98785 30.4962 8.09748 30.2349C8.20711 29.9737 8.39203 29.751 8.62868 29.5953C8.86532 29.4395 9.14298 29.3578 9.42627 29.3604C9.8011 29.3604 10.1606 29.5093 10.4256 29.7744C10.6907 30.0394 10.8396 30.3989 10.8396 30.7738Z" fill="white"/>
<path d="M9.42732 32.8673C9.0133 32.8673 8.60857 32.7446 8.26432 32.5145C7.92008 32.2845 7.65177 31.9576 7.49333 31.5751C7.33489 31.1926 7.29344 30.7717 7.37421 30.3656C7.45498 29.9595 7.65435 29.5866 7.94711 29.2938C8.23987 29.001 8.61286 28.8017 9.01893 28.7209C9.425 28.6401 9.8459 28.6816 10.2284 28.84C10.6109 28.9985 10.9378 29.2668 11.1679 29.611C11.3979 29.9553 11.5207 30.36 11.5207 30.774C11.5207 31.3292 11.3001 31.8616 10.9075 32.2542C10.515 32.6468 9.9825 32.8673 9.42732 32.8673ZM9.42732 30.0273C9.2759 30.0247 9.12715 30.0674 9.00015 30.1499C8.87314 30.2323 8.77367 30.3509 8.71451 30.4903C8.65534 30.6297 8.63917 30.7836 8.66807 30.9322C8.69696 31.0809 8.76962 31.2175 8.8767 31.3246C8.98378 31.4317 9.12042 31.5044 9.26907 31.5333C9.41773 31.5622 9.57163 31.546 9.71104 31.4868C9.85044 31.4276 9.96899 31.3282 10.0515 31.2012C10.134 31.0742 10.1766 30.9254 10.174 30.774C10.174 30.576 10.0953 30.3861 9.95529 30.246C9.81527 30.106 9.62535 30.0273 9.42732 30.0273Z" fill="#0F172A"/>
<path d="M15.0397 43.3867H11.373V50.7467H15.0397V43.3867Z" fill="white"/>
<path d="M15.027 51.4132H11.3737C11.1969 51.4132 11.0273 51.343 10.9023 51.2179C10.7773 51.0929 10.707 50.9233 10.707 50.7465V43.3865C10.707 43.2097 10.7773 43.0402 10.9023 42.9151C11.0273 42.7901 11.1969 42.7199 11.3737 42.7199H15.027C15.1157 42.7181 15.2038 42.734 15.2863 42.7667C15.3687 42.7994 15.4438 42.8483 15.5071 42.9104C15.5704 42.9724 15.6207 43.0465 15.655 43.1283C15.6894 43.2101 15.707 43.2979 15.707 43.3865V50.7465C15.707 50.8352 15.6894 50.923 15.655 51.0048C15.6207 51.0865 15.5704 51.1606 15.5071 51.2227C15.4438 51.2848 15.3687 51.3336 15.2863 51.3663C15.2038 51.399 15.1157 51.415 15.027 51.4132ZM12.0404 50.0799H14.3604V44.0532H12.0004L12.0404 50.0799Z" fill="#0F172A"/>
<path d="M57.7729 44.0535C57.8616 44.0552 57.9497 44.0393 58.0321 44.0066C58.1145 43.9739 58.1896 43.9251 58.2529 43.863C58.3163 43.8009 58.3666 43.7268 58.4009 43.6451C58.4352 43.5633 58.4529 43.4755 58.4529 43.3868V1.6668C58.4529 1.57812 58.4352 1.49033 58.4009 1.40856C58.3666 1.3268 58.3163 1.2527 58.2529 1.19062C58.1896 1.12854 58.1145 1.07971 58.0321 1.047C57.9497 1.01429 57.8616 0.99836 57.7729 1.00013H0.892891C0.804227 0.99836 0.716101 1.01429 0.633672 1.047C0.551243 1.07971 0.476169 1.12854 0.412844 1.19062C0.349519 1.2527 0.299216 1.3268 0.264882 1.40856C0.230549 1.49033 0.212873 1.57812 0.212891 1.6668V43.3868C0.212873 43.4755 0.230549 43.5633 0.264882 43.6451C0.299216 43.7268 0.349519 43.8009 0.412844 43.863C0.476169 43.9251 0.551243 43.9739 0.633672 44.0066C0.716101 44.0393 0.804227 44.0552 0.892891 44.0535H42.9596V50.0801H0.892891C0.804227 50.0784 0.716101 50.0943 0.633672 50.127C0.551243 50.1597 0.476169 50.2085 0.412844 50.2706C0.349519 50.3327 0.299216 50.4068 0.264882 50.4886C0.230549 50.5703 0.212873 50.6581 0.212891 50.7468V53.6668C0.212873 53.7555 0.230549 53.8433 0.264882 53.925C0.299216 54.0068 0.349519 54.0809 0.412844 54.143C0.476169 54.2051 0.551243 54.2539 0.633672 54.2866C0.716101 54.3193 0.804227 54.3352 0.892891 54.3335H57.7729C57.8616 54.3352 57.9497 54.3193 58.0321 54.2866C58.1145 54.2539 58.1896 54.2051 58.2529 54.143C58.3163 54.0809 58.3666 54.0068 58.4009 53.925C58.4352 53.8433 58.4529 53.7555 58.4529 53.6668V50.7468C58.4529 50.6581 58.4352 50.5703 58.4009 50.4886C58.3666 50.4068 58.3163 50.3327 58.2529 50.2706C58.1896 50.2085 58.1145 50.1597 58.0321 50.127C57.9497 50.0943 57.8616 50.0784 57.7729 50.0801H47.9996V44.0535H57.7729ZM1.55956 2.33346H57.1062V42.7201H1.55956V2.33346ZM57.1062 53.0001H1.55956V51.4135H57.1062V53.0001ZM46.6662 50.0801H44.3062V44.0535H46.6662V50.0801Z" fill="#0F172A"/>
</svg>
