<svg viewBox="0 0 67 60" fill="none" xmlns="http://www.w3.org/2000/svg">
<g clip-path="url(#clip0_66_320)">
<path d="M56.8265 1.70605H9.83984V32.9061H56.8265V1.70605Z" fill="white"/>
<path d="M57.1073 33.0146H9.56063L1.64062 49.028V53.6279H65.0406V49.028L57.1073 33.0146Z" fill="white"/>
<path d="M52.8262 5.69434H13.8262V28.9077H52.8262V5.69434Z" fill="white"/>
<path d="M52.8258 29.6143H13.8258C13.733 29.6143 13.6411 29.596 13.5554 29.5605C13.4696 29.525 13.3917 29.473 13.3261 29.4073C13.2605 29.3417 13.2084 29.2638 13.1729 29.1781C13.1374 29.0923 13.1191 29.0005 13.1191 28.9077V5.69432C13.1226 5.50922 13.1986 5.33288 13.3308 5.20323C13.4629 5.07357 13.6407 5.00095 13.8258 5.00098H52.8258C53.0132 5.00098 53.193 5.07544 53.3255 5.20796C53.458 5.34049 53.5325 5.52023 53.5325 5.70765V28.9077C53.5325 29.0005 53.5142 29.0923 53.4787 29.1781C53.4432 29.2638 53.3911 29.3417 53.3255 29.4073C53.2599 29.473 53.182 29.525 53.0962 29.5605C53.0105 29.596 52.9186 29.6143 52.8258 29.6143ZM14.5325 28.201H52.1191V6.40098H14.5325V28.201Z" fill="#0F172A"/>
<path d="M14.2258 37.4143H13.5192C13.4264 37.4143 13.3345 37.396 13.2487 37.3605C13.163 37.325 13.0851 37.273 13.0195 37.2073C12.9539 37.1417 12.9018 37.0638 12.8663 36.9781C12.8308 36.8923 12.8125 36.8005 12.8125 36.7077C12.8125 36.6149 12.8308 36.523 12.8663 36.4372C12.9018 36.3515 12.9539 36.2736 13.0195 36.208C13.0851 36.1423 13.163 36.0903 13.2487 36.0548C13.3345 36.0193 13.4264 36.001 13.5192 36.001H14.2258C14.3186 36.001 14.4105 36.0193 14.4963 36.0548C14.582 36.0903 14.6599 36.1423 14.7255 36.208C14.7911 36.2736 14.8432 36.3515 14.8787 36.4372C14.9142 36.523 14.9325 36.6149 14.9325 36.7077C14.9325 36.8005 14.9142 36.8923 14.8787 36.9781C14.8432 37.0638 14.7911 37.1417 14.7255 37.2073C14.6599 37.273 14.582 37.325 14.4963 37.3605C14.4105 37.396 14.3186 37.4143 14.2258 37.4143Z" fill="#0F172A"/>
<path d="M49.5065 37.4143H47.9998C47.8124 37.4143 47.6326 37.3399 47.5001 37.2073C47.3676 37.0748 47.2931 36.8951 47.2931 36.7077C47.2931 36.5202 47.3676 36.3405 47.5001 36.208C47.6326 36.0754 47.8124 36.001 47.9998 36.001H49.4798C49.5726 36.001 49.6645 36.0193 49.7502 36.0548C49.836 36.0903 49.9139 36.1423 49.9795 36.208C50.0451 36.2736 50.0971 36.3515 50.1327 36.4372C50.1682 36.523 50.1865 36.6149 50.1865 36.7077C50.1865 36.8005 50.1682 36.8923 50.1327 36.9781C50.0971 37.0638 50.0451 37.1417 49.9795 37.2073C49.9139 37.273 49.836 37.325 49.7502 37.3605C49.6645 37.396 49.5726 37.4143 49.4798 37.4143H49.5065ZM45.0931 37.4143H43.6265C43.439 37.4143 43.2593 37.3399 43.1268 37.2073C42.9942 37.0748 42.9198 36.8951 42.9198 36.7077C42.9198 36.5202 42.9942 36.3405 43.1268 36.208C43.2593 36.0754 43.439 36.001 43.6265 36.001H45.0931C45.2805 36.001 45.4603 36.0754 45.5928 36.208C45.7253 36.3405 45.7998 36.5202 45.7998 36.7077C45.7998 36.8951 45.7253 37.0748 45.5928 37.2073C45.4603 37.3399 45.2805 37.4143 45.0931 37.4143ZM40.6798 37.4143H39.2131C39.1203 37.4143 39.0284 37.396 38.9427 37.3605C38.857 37.325 38.7791 37.273 38.7134 37.2073C38.6478 37.1417 38.5958 37.0638 38.5603 36.9781C38.5247 36.8923 38.5065 36.8005 38.5065 36.7077C38.5065 36.6149 38.5247 36.523 38.5603 36.4372C38.5958 36.3515 38.6478 36.2736 38.7134 36.208C38.7791 36.1423 38.857 36.0903 38.9427 36.0548C39.0284 36.0193 39.1203 36.001 39.2131 36.001H40.6798C40.8672 36.001 41.047 36.0754 41.1795 36.208C41.312 36.3405 41.3865 36.5202 41.3865 36.7077C41.3865 36.8951 41.312 37.0748 41.1795 37.2073C41.047 37.3399 40.8672 37.4143 40.6798 37.4143ZM36.2798 37.4143H34.7998C34.6124 37.4143 34.4326 37.3399 34.3001 37.2073C34.1676 37.0748 34.0931 36.8951 34.0931 36.7077C34.0931 36.5202 34.1676 36.3405 34.3001 36.208C34.4326 36.0754 34.6124 36.001 34.7998 36.001H36.2798C36.4672 36.001 36.647 36.0754 36.7795 36.208C36.912 36.3405 36.9865 36.5202 36.9865 36.7077C36.9865 36.8951 36.912 37.0748 36.7795 37.2073C36.647 37.3399 36.4672 37.4143 36.2798 37.4143ZM31.8665 37.4143H30.3998C30.307 37.4143 30.2151 37.396 30.1294 37.3605C30.0436 37.325 29.9657 37.273 29.9001 37.2073C29.8345 37.1417 29.7824 37.0638 29.7469 36.9781C29.7114 36.8923 29.6931 36.8005 29.6931 36.7077C29.6931 36.6149 29.7114 36.523 29.7469 36.4372C29.7824 36.3515 29.8345 36.2736 29.9001 36.208C29.9657 36.1423 30.0436 36.0903 30.1294 36.0548C30.2151 36.0193 30.307 36.001 30.3998 36.001H31.8665C32.0539 36.001 32.2336 36.0754 32.3661 36.208C32.4987 36.3405 32.5731 36.5202 32.5731 36.7077C32.5731 36.8951 32.4987 37.0748 32.3661 37.2073C32.2336 37.3399 32.0539 37.4143 31.8665 37.4143ZM27.4531 37.4143H25.9865C25.799 37.4143 25.6193 37.3399 25.4868 37.2073C25.3542 37.0748 25.2798 36.8951 25.2798 36.7077C25.2798 36.5202 25.3542 36.3405 25.4868 36.208C25.6193 36.0754 25.799 36.001 25.9865 36.001H27.4531C27.5459 36.001 27.6378 36.0193 27.7236 36.0548C27.8093 36.0903 27.8872 36.1423 27.9528 36.208C28.0184 36.2736 28.0705 36.3515 28.106 36.4372C28.1415 36.523 28.1598 36.6149 28.1598 36.7077C28.1598 36.8005 28.1415 36.8923 28.106 36.9781C28.0705 37.0638 28.0184 37.1417 27.9528 37.2073C27.8872 37.273 27.8093 37.325 27.7236 37.3605C27.6378 37.396 27.5459 37.4143 27.4531 37.4143ZM23.0398 37.4143H21.5731C21.4803 37.4143 21.3884 37.396 21.3027 37.3605C21.217 37.325 21.1391 37.273 21.0734 37.2073C21.0078 37.1417 20.9558 37.0638 20.9202 36.9781C20.8847 36.8923 20.8665 36.8005 20.8665 36.7077C20.8665 36.6149 20.8847 36.523 20.9202 36.4372C20.9558 36.3515 21.0078 36.2736 21.0734 36.208C21.1391 36.1423 21.217 36.0903 21.3027 36.0548C21.3884 36.0193 21.4803 36.001 21.5731 36.001H23.0398C23.1326 36.001 23.2245 36.0193 23.3102 36.0548C23.396 36.0903 23.4739 36.1423 23.5395 36.208C23.6051 36.2736 23.6572 36.3515 23.6927 36.4372C23.7282 36.523 23.7465 36.6149 23.7465 36.7077C23.7465 36.8005 23.7282 36.8923 23.6927 36.9781C23.6572 37.0638 23.6051 37.1417 23.5395 37.2073C23.4739 37.273 23.396 37.325 23.3102 37.3605C23.2245 37.396 23.1326 37.4143 23.0398 37.4143ZM18.6398 37.4143H17.1598C16.9724 37.4143 16.7926 37.3399 16.6601 37.2073C16.5276 37.0748 16.4531 36.8951 16.4531 36.7077C16.4531 36.5202 16.5276 36.3405 16.6601 36.208C16.7926 36.0754 16.9724 36.001 17.1598 36.001H18.6665C18.7593 36.001 18.8512 36.0193 18.9369 36.0548C19.0226 36.0903 19.1005 36.1423 19.1661 36.208C19.2318 36.2736 19.2838 36.3515 19.3193 36.4372C19.3548 36.523 19.3731 36.6149 19.3731 36.7077C19.3731 36.8005 19.3548 36.8923 19.3193 36.9781C19.2838 37.0638 19.2318 37.1417 19.1661 37.2073C19.1005 37.273 19.0226 37.325 18.9369 37.3605C18.8512 37.396 18.7593 37.4143 18.6665 37.4143H18.6398Z" fill="#0F172A"/>
<path d="M53.1458 37.4143H52.4391C52.2517 37.4143 52.0719 37.3399 51.9394 37.2073C51.8069 37.0748 51.7324 36.8951 51.7324 36.7077C51.7324 36.5202 51.8069 36.3405 51.9394 36.208C52.0719 36.0754 52.2517 36.001 52.4391 36.001H53.1458C53.3332 36.001 53.5129 36.0754 53.6455 36.208C53.778 36.3405 53.8524 36.5202 53.8524 36.7077C53.8524 36.8951 53.778 37.0748 53.6455 37.2073C53.5129 37.3399 53.3332 37.4143 53.1458 37.4143Z" fill="#0F172A"/>
<path d="M11.7473 40.8928H11.0407C10.9479 40.8928 10.856 40.8746 10.7702 40.839C10.6845 40.8035 10.6066 40.7515 10.541 40.6859C10.4753 40.6202 10.4233 40.5423 10.3878 40.4566C10.3523 40.3709 10.334 40.279 10.334 40.1862C10.334 39.9987 10.4084 39.819 10.541 39.6865C10.6735 39.5539 10.8532 39.4795 11.0407 39.4795H11.7473C11.9347 39.4795 12.1145 39.5539 12.247 39.6865C12.3795 39.819 12.454 39.9987 12.454 40.1862C12.454 40.279 12.4357 40.3709 12.4002 40.4566C12.3647 40.5423 12.3126 40.6202 12.247 40.6859C12.1814 40.7515 12.1035 40.8035 12.0177 40.839C11.932 40.8746 11.8401 40.8928 11.7473 40.8928Z" fill="#0F172A"/>
<path d="M52.2276 40.8928H50.8943C50.8021 40.8928 50.7108 40.8745 50.6258 40.8388C50.5408 40.8031 50.4638 40.7509 50.3993 40.6851C50.3347 40.6193 50.2839 40.5413 50.2499 40.4556C50.2158 40.3699 50.1992 40.2783 50.201 40.1862C50.1992 40.094 50.2158 40.0024 50.2499 39.9167C50.2839 39.8311 50.3347 39.7531 50.3993 39.6873C50.4638 39.6215 50.5408 39.5692 50.6258 39.5335C50.7108 39.4978 50.8021 39.4795 50.8943 39.4795H52.2276C52.3198 39.4795 52.4111 39.4978 52.4961 39.5335C52.5811 39.5692 52.6581 39.6215 52.7227 39.6873C52.7872 39.7531 52.838 39.8311 52.8721 39.9167C52.9061 40.0024 52.9227 40.094 52.921 40.1862C52.9227 40.2783 52.9061 40.3699 52.8721 40.4556C52.838 40.5413 52.7872 40.6193 52.7227 40.6851C52.6581 40.7509 52.5811 40.8031 52.4961 40.8388C52.4111 40.8745 52.3198 40.8928 52.2276 40.8928ZM48.2276 40.8928H46.8943C46.8015 40.8928 46.7096 40.8746 46.6239 40.839C46.5381 40.8035 46.4602 40.7515 46.3946 40.6859C46.329 40.6202 46.2769 40.5423 46.2414 40.4566C46.2059 40.3709 46.1876 40.279 46.1876 40.1862C46.1876 39.9987 46.2621 39.819 46.3946 39.6865C46.5271 39.5539 46.7069 39.4795 46.8943 39.4795H48.2276C48.415 39.4795 48.5948 39.5539 48.7273 39.6865C48.8598 39.819 48.9343 39.9987 48.9343 40.1862C48.9346 40.2836 48.9147 40.3801 48.8759 40.4695C48.8371 40.5589 48.7802 40.6393 48.7088 40.7057C48.6374 40.7721 48.5531 40.823 48.4611 40.8552C48.3691 40.8874 48.2715 40.9002 48.1743 40.8928H48.2276ZM44.2276 40.8928H42.8943C42.8021 40.8928 42.7108 40.8745 42.6258 40.8388C42.5408 40.8031 42.4638 40.7509 42.3993 40.6851C42.3347 40.6193 42.2839 40.5413 42.2499 40.4556C42.2158 40.3699 42.1992 40.2783 42.201 40.1862C42.1992 40.094 42.2158 40.0024 42.2499 39.9167C42.2839 39.8311 42.3347 39.7531 42.3993 39.6873C42.4638 39.6215 42.5408 39.5692 42.6258 39.5335C42.7108 39.4978 42.8021 39.4795 42.8943 39.4795H44.2276C44.415 39.4795 44.5948 39.5539 44.7273 39.6865C44.8598 39.819 44.9343 39.9987 44.9343 40.1862C44.9378 40.2894 44.9183 40.3921 44.8771 40.4867C44.8359 40.5814 44.7741 40.6657 44.6961 40.7334C44.6182 40.8011 44.5261 40.8506 44.4266 40.8782C44.3271 40.9058 44.2226 40.9108 44.121 40.8928H44.2276ZM40.2276 40.8928H38.8943C38.8015 40.8928 38.7096 40.8746 38.6239 40.839C38.5381 40.8035 38.4602 40.7515 38.3946 40.6859C38.329 40.6202 38.2769 40.5423 38.2414 40.4566C38.2059 40.3709 38.1876 40.279 38.1876 40.1862C38.1876 39.9987 38.2621 39.819 38.3946 39.6865C38.5271 39.5539 38.7069 39.4795 38.8943 39.4795H40.2276C40.415 39.4795 40.5948 39.5539 40.7273 39.6865C40.8598 39.819 40.9343 39.9987 40.9343 40.1862C40.9366 40.2927 40.9148 40.3984 40.8705 40.4953C40.8262 40.5922 40.7606 40.6779 40.6785 40.7459C40.5964 40.8138 40.5001 40.8624 40.3966 40.8878C40.2931 40.9133 40.1852 40.915 40.081 40.8928H40.2276ZM36.2276 40.8928H34.6676C34.5748 40.8928 34.4829 40.8746 34.3972 40.839C34.3115 40.8035 34.2336 40.7515 34.1679 40.6859C34.1023 40.6202 34.0503 40.5423 34.0148 40.4566C33.9792 40.3709 33.961 40.279 33.961 40.1862C33.961 39.9987 34.0354 39.819 34.1679 39.6865C34.3005 39.5539 34.4802 39.4795 34.6676 39.4795H36.001C36.1884 39.4795 36.3681 39.5539 36.5006 39.6865C36.6332 39.819 36.7076 39.9987 36.7076 40.1862C36.7094 40.2795 36.6924 40.3722 36.6575 40.4587C36.6227 40.5453 36.5707 40.6239 36.5047 40.6899C36.4387 40.7559 36.3601 40.8079 36.2735 40.8427C36.187 40.8776 36.0943 40.8946 36.001 40.8928H36.2276ZM32.2276 40.8928H30.6676C30.5748 40.8928 30.4829 40.8746 30.3972 40.839C30.3115 40.8035 30.2336 40.7515 30.1679 40.6859C30.1023 40.6202 30.0503 40.5423 30.0148 40.4566C29.9792 40.3709 29.961 40.279 29.961 40.1862C29.961 39.9987 30.0354 39.819 30.1679 39.6865C30.3005 39.5539 30.4802 39.4795 30.6676 39.4795H32.001C32.0938 39.4795 32.1857 39.4978 32.2714 39.5333C32.3571 39.5688 32.435 39.6209 32.5007 39.6865C32.5663 39.7521 32.6183 39.83 32.6538 39.9157C32.6893 40.0015 32.7076 40.0934 32.7076 40.1862C32.7076 40.279 32.6893 40.3709 32.6538 40.4566C32.6183 40.5423 32.5663 40.6202 32.5007 40.6859C32.435 40.7515 32.3571 40.8035 32.2714 40.839C32.1857 40.8746 32.0938 40.8928 32.001 40.8928H32.2276ZM28.2276 40.8928H26.8943C26.8015 40.8928 26.7096 40.8746 26.6239 40.839C26.5381 40.8035 26.4602 40.7515 26.3946 40.6859C26.329 40.6202 26.2769 40.5423 26.2414 40.4566C26.2059 40.3709 26.1876 40.279 26.1876 40.1862C26.1876 39.9987 26.2621 39.819 26.3946 39.6865C26.5271 39.5539 26.7069 39.4795 26.8943 39.4795H28.2276C28.415 39.4795 28.5948 39.5539 28.7273 39.6865C28.8598 39.819 28.9343 39.9987 28.9343 40.1862C28.9405 40.3015 28.9182 40.4167 28.8696 40.5214C28.8209 40.6262 28.7473 40.7175 28.6552 40.7872C28.5631 40.857 28.4553 40.9031 28.3412 40.9215C28.2272 40.9399 28.1103 40.9301 28.001 40.8928H28.2276ZM24.2276 40.8928H22.8943C22.801 40.8946 22.7083 40.8776 22.6217 40.8427C22.5352 40.8079 22.4566 40.7559 22.3906 40.6899C22.3246 40.6239 22.2726 40.5453 22.2377 40.4587C22.2029 40.3722 22.1858 40.2795 22.1876 40.1862C22.1876 39.9987 22.2621 39.819 22.3946 39.6865C22.5271 39.5539 22.7069 39.4795 22.8943 39.4795H24.2276C24.3204 39.4795 24.4123 39.4978 24.4981 39.5333C24.5838 39.5688 24.6617 39.6209 24.7273 39.6865C24.7929 39.7521 24.845 39.83 24.8805 39.9157C24.916 40.0015 24.9343 40.0934 24.9343 40.1862C24.9502 40.3152 24.9302 40.446 24.8765 40.5644C24.8229 40.6828 24.7376 40.784 24.6301 40.8571C24.5226 40.9301 24.397 40.9721 24.2672 40.9784C24.1374 40.9847 24.0084 40.9551 23.8943 40.8928H24.2276ZM20.2276 40.8928H18.8943C18.8015 40.8928 18.7096 40.8746 18.6239 40.839C18.5381 40.8035 18.4602 40.7515 18.3946 40.6859C18.329 40.6202 18.2769 40.5423 18.2414 40.4566C18.2059 40.3709 18.1876 40.279 18.1876 40.1862C18.1876 39.9987 18.2621 39.819 18.3946 39.6865C18.5271 39.5539 18.7069 39.4795 18.8943 39.4795H20.2276C20.3204 39.4795 20.4123 39.4978 20.4981 39.5333C20.5838 39.5688 20.6617 39.6209 20.7273 39.6865C20.7929 39.7521 20.845 39.83 20.8805 39.9157C20.916 40.0015 20.9343 40.0934 20.9343 40.1862C20.9583 40.323 20.9415 40.4638 20.886 40.5911C20.8304 40.7184 20.7385 40.8265 20.6219 40.9019C20.5052 40.9773 20.3689 41.0167 20.2301 41.0151C20.0912 41.0134 19.9558 40.9709 19.841 40.8928H20.2276ZM16.2276 40.8928H14.8943C14.801 40.8946 14.7083 40.8776 14.6217 40.8427C14.5352 40.8079 14.4566 40.7559 14.3906 40.6899C14.3246 40.6239 14.2726 40.5453 14.2377 40.4587C14.2029 40.3722 14.1858 40.2795 14.1876 40.1862C14.1876 39.9987 14.2621 39.819 14.3946 39.6865C14.5271 39.5539 14.7069 39.4795 14.8943 39.4795H16.2276C16.4151 39.4795 16.5948 39.5539 16.7273 39.6865C16.8598 39.819 16.9343 39.9987 16.9343 40.1862C16.967 40.3294 16.9542 40.4793 16.8977 40.6149C16.8413 40.7506 16.7439 40.8653 16.6192 40.943C16.4946 41.0208 16.3487 41.0577 16.2021 41.0487C16.0554 41.0397 15.9152 40.9852 15.801 40.8928H16.2276Z" fill="#0F172A"/>
<path d="M55.6262 40.8928H54.9196C54.8268 40.8928 54.7349 40.8746 54.6491 40.839C54.5634 40.8035 54.4855 40.7515 54.4199 40.6859C54.3543 40.6202 54.3022 40.5423 54.2667 40.4566C54.2312 40.3709 54.2129 40.279 54.2129 40.1862C54.2129 39.9987 54.2873 39.819 54.4199 39.6865C54.5524 39.5539 54.7321 39.4795 54.9196 39.4795H55.6262C55.8136 39.4795 55.9934 39.5539 56.1259 39.6865C56.2584 39.819 56.3329 39.9987 56.3329 40.1862C56.3329 40.279 56.3146 40.3709 56.2791 40.4566C56.2436 40.5423 56.1915 40.6202 56.1259 40.6859C56.0603 40.7515 55.9824 40.8035 55.8966 40.839C55.8109 40.8746 55.719 40.8928 55.6262 40.8928Z" fill="#0F172A"/>
<path d="M10.2664 44.4135H9.57304C9.47301 44.4273 9.37117 44.4196 9.2744 44.3908C9.17762 44.3619 9.08815 44.3127 9.01201 44.2463C8.93587 44.18 8.87483 44.0981 8.833 44.0062C8.79117 43.9143 8.76953 43.8145 8.76953 43.7135C8.76953 43.6125 8.79117 43.5127 8.833 43.4208C8.87483 43.3289 8.93587 43.247 9.01201 43.1807C9.08815 43.1144 9.17762 43.0651 9.2744 43.0363C9.37117 43.0074 9.47301 42.9997 9.57304 43.0135H10.2664C10.3664 42.9997 10.4682 43.0074 10.565 43.0363C10.6618 43.0651 10.7513 43.1144 10.8274 43.1807C10.9035 43.247 10.9646 43.3289 11.0064 43.4208C11.0482 43.5127 11.0699 43.6125 11.0699 43.7135C11.0699 43.8145 11.0482 43.9143 11.0064 44.0062C10.9646 44.0981 10.9035 44.18 10.8274 44.2463C10.7513 44.3127 10.6618 44.3619 10.565 44.3908C10.4682 44.4196 10.3664 44.4273 10.2664 44.4135Z" fill="#0F172A"/>
<path d="M53.5076 44.4135H52.0676C51.8986 44.3901 51.7437 44.3064 51.6316 44.1777C51.5195 44.049 51.4578 43.8842 51.4578 43.7135C51.4578 43.5429 51.5195 43.378 51.6316 43.2493C51.7437 43.1207 51.8986 43.0369 52.0676 43.0135H53.5076C53.6076 42.9997 53.7095 43.0074 53.8062 43.0363C53.903 43.0651 53.9925 43.1144 54.0686 43.1807C54.1448 43.247 54.2058 43.3289 54.2476 43.4208C54.2895 43.5127 54.3111 43.6125 54.3111 43.7135C54.3111 43.8145 54.2895 43.9143 54.2476 44.0062C54.2058 44.0981 54.1448 44.18 54.0686 44.2463C53.9925 44.3127 53.903 44.3619 53.8062 44.3908C53.7095 44.4196 53.6076 44.4273 53.5076 44.4135ZM49.1876 44.4135H47.7476C47.6476 44.4273 47.5457 44.4196 47.449 44.3908C47.3522 44.3619 47.2627 44.3127 47.1866 44.2463C47.1104 44.18 47.0494 44.0981 47.0076 44.0062C46.9657 43.9143 46.9441 43.8145 46.9441 43.7135C46.9441 43.6125 46.9657 43.5127 47.0076 43.4208C47.0494 43.3289 47.1104 43.247 47.1866 43.1807C47.2627 43.1144 47.3522 43.0651 47.449 43.0363C47.5457 43.0074 47.6476 42.9997 47.7476 43.0135H49.1876C49.2876 42.9997 49.3895 43.0074 49.4862 43.0363C49.583 43.0651 49.6725 43.1144 49.7486 43.1807C49.8248 43.247 49.8858 43.3289 49.9276 43.4208C49.9695 43.5127 49.9911 43.6125 49.9911 43.7135C49.9911 43.8145 49.9695 43.9143 49.9276 44.0062C49.8858 44.0981 49.8248 44.18 49.7486 44.2463C49.6725 44.3127 49.583 44.3619 49.4862 44.3908C49.3895 44.4196 49.2876 44.4273 49.1876 44.4135ZM44.8676 44.4135H43.4276C43.3276 44.4273 43.2257 44.4196 43.129 44.3908C43.0322 44.3619 42.9427 44.3127 42.8666 44.2463C42.7904 44.18 42.7294 44.0981 42.6876 44.0062C42.6457 43.9143 42.6241 43.8145 42.6241 43.7135C42.6241 43.6125 42.6457 43.5127 42.6876 43.4208C42.7294 43.3289 42.7904 43.247 42.8666 43.1807C42.9427 43.1144 43.0322 43.0651 43.129 43.0363C43.2257 43.0074 43.3276 42.9997 43.4276 43.0135H44.8676C44.9676 42.9997 45.0695 43.0074 45.1662 43.0363C45.263 43.0651 45.3525 43.1144 45.4286 43.1807C45.5048 43.247 45.5658 43.3289 45.6076 43.4208C45.6495 43.5127 45.6711 43.6125 45.6711 43.7135C45.6711 43.8145 45.6495 43.9143 45.6076 44.0062C45.5658 44.0981 45.5048 44.18 45.4286 44.2463C45.3525 44.3127 45.263 44.3619 45.1662 44.3908C45.0695 44.4196 44.9676 44.4273 44.8676 44.4135ZM40.5476 44.4135H39.0943C38.9252 44.3901 38.7704 44.3064 38.6583 44.1777C38.5462 44.049 38.4844 43.8842 38.4844 43.7135C38.4844 43.5429 38.5462 43.378 38.6583 43.2493C38.7704 43.1207 38.9252 43.0369 39.0943 43.0135H40.5476C40.7166 43.0369 40.8715 43.1207 40.9836 43.2493C41.0957 43.378 41.1574 43.5429 41.1574 43.7135C41.1574 43.8842 41.0957 44.049 40.9836 44.1777C40.8715 44.3064 40.7166 44.3901 40.5476 44.4135ZM36.2143 44.4135H34.7743C34.6742 44.4273 34.5724 44.4196 34.4756 44.3908C34.3788 44.3619 34.2894 44.3127 34.2132 44.2463C34.1371 44.18 34.076 44.0981 34.0342 44.0062C33.9924 43.9143 33.9708 43.8145 33.9708 43.7135C33.9708 43.6125 33.9924 43.5127 34.0342 43.4208C34.076 43.3289 34.1371 43.247 34.2132 43.1807C34.2894 43.1144 34.3788 43.0651 34.4756 43.0363C34.5724 43.0074 34.6742 42.9997 34.7743 43.0135H36.2143C36.3143 42.9997 36.4161 43.0074 36.5129 43.0363C36.6097 43.0651 36.6991 43.1144 36.7753 43.1807C36.8514 43.247 36.9125 43.3289 36.9543 43.4208C36.9961 43.5127 37.0178 43.6125 37.0178 43.7135C37.0178 43.8145 36.9961 43.9143 36.9543 44.0062C36.9125 44.0981 36.8514 44.18 36.7753 44.2463C36.6991 44.3127 36.6097 44.3619 36.5129 44.3908C36.4161 44.4196 36.3143 44.4273 36.2143 44.4135ZM31.8943 44.4135H30.4543C30.3542 44.4273 30.2524 44.4196 30.1556 44.3908C30.0588 44.3619 29.9694 44.3127 29.8932 44.2463C29.8171 44.18 29.7561 44.0981 29.7142 44.0062C29.6724 43.9143 29.6508 43.8145 29.6508 43.7135C29.6508 43.6125 29.6724 43.5127 29.7142 43.4208C29.7561 43.3289 29.8171 43.247 29.8932 43.1807C29.9694 43.1144 30.0588 43.0651 30.1556 43.0363C30.2524 43.0074 30.3542 42.9997 30.4543 43.0135H31.8943C31.9943 42.9997 32.0961 43.0074 32.1929 43.0363C32.2897 43.0651 32.3791 43.1144 32.4553 43.1807C32.5314 43.247 32.5925 43.3289 32.6343 43.4208C32.6761 43.5127 32.6978 43.6125 32.6978 43.7135C32.6978 43.8145 32.6761 43.9143 32.6343 44.0062C32.5925 44.0981 32.5314 44.18 32.4553 44.2463C32.3791 44.3127 32.2897 44.3619 32.1929 44.3908C32.0961 44.4196 31.9943 44.4273 31.8943 44.4135ZM27.5743 44.4135H26.1343C26.0342 44.4273 25.9324 44.4196 25.8356 44.3908C25.7388 44.3619 25.6494 44.3127 25.5732 44.2463C25.4971 44.18 25.436 44.0981 25.3942 44.0062C25.3524 43.9143 25.3308 43.8145 25.3308 43.7135C25.3308 43.6125 25.3524 43.5127 25.3942 43.4208C25.436 43.3289 25.4971 43.247 25.5732 43.1807C25.6494 43.1144 25.7388 43.0651 25.8356 43.0363C25.9324 43.0074 26.0342 42.9997 26.1343 43.0135H27.5743C27.6743 42.9997 27.7761 43.0074 27.8729 43.0363C27.9697 43.0651 28.0591 43.1144 28.1353 43.1807C28.2114 43.247 28.2725 43.3289 28.3143 43.4208C28.3561 43.5127 28.3778 43.6125 28.3778 43.7135C28.3778 43.8145 28.3561 43.9143 28.3143 44.0062C28.2725 44.0981 28.2114 44.18 28.1353 44.2463C28.0591 44.3127 27.9697 44.3619 27.8729 44.3908C27.7761 44.4196 27.6743 44.4273 27.5743 44.4135ZM23.2409 44.4135H21.8009C21.7009 44.4273 21.5991 44.4196 21.5023 44.3908C21.4055 44.3619 21.316 44.3127 21.2399 44.2463C21.1638 44.18 21.1027 44.0981 21.0609 44.0062C21.0191 43.9143 20.9974 43.8145 20.9974 43.7135C20.9974 43.6125 21.0191 43.5127 21.0609 43.4208C21.1027 43.3289 21.1638 43.247 21.2399 43.1807C21.316 43.1144 21.4055 43.0651 21.5023 43.0363C21.5991 43.0074 21.7009 42.9997 21.8009 43.0135H23.2409C23.341 42.9997 23.4428 43.0074 23.5396 43.0363C23.6363 43.0651 23.7258 43.1144 23.802 43.1807C23.8781 43.247 23.9391 43.3289 23.981 43.4208C24.0228 43.5127 24.0444 43.6125 24.0444 43.7135C24.0444 43.8145 24.0228 43.9143 23.981 44.0062C23.9391 44.0981 23.8781 44.18 23.802 44.2463C23.7258 44.3127 23.6363 44.3619 23.5396 44.3908C23.4428 44.4196 23.341 44.4273 23.2409 44.4135ZM18.9209 44.4135H17.4809C17.3809 44.4273 17.2791 44.4196 17.1823 44.3908C17.0855 44.3619 16.996 44.3127 16.9199 44.2463C16.8438 44.18 16.7827 44.0981 16.7409 44.0062C16.6991 43.9143 16.6774 43.8145 16.6774 43.7135C16.6774 43.6125 16.6991 43.5127 16.7409 43.4208C16.7827 43.3289 16.8438 43.247 16.9199 43.1807C16.996 43.1144 17.0855 43.0651 17.1823 43.0363C17.2791 43.0074 17.3809 42.9997 17.4809 43.0135H18.9209C19.021 42.9997 19.1228 43.0074 19.2196 43.0363C19.3163 43.0651 19.4058 43.1144 19.482 43.1807C19.5581 43.247 19.6191 43.3289 19.661 43.4208C19.7028 43.5127 19.7244 43.6125 19.7244 43.7135C19.7244 43.8145 19.7028 43.9143 19.661 44.0062C19.6191 44.0981 19.5581 44.18 19.482 44.2463C19.4058 44.3127 19.3163 44.3619 19.2196 44.3908C19.1228 44.4196 19.021 44.4273 18.9209 44.4135ZM14.6009 44.4135H13.1609C13.0609 44.4273 12.9591 44.4196 12.8623 44.3908C12.7655 44.3619 12.676 44.3127 12.5999 44.2463C12.5238 44.18 12.4627 44.0981 12.4209 44.0062C12.3791 43.9143 12.3574 43.8145 12.3574 43.7135C12.3574 43.6125 12.3791 43.5127 12.4209 43.4208C12.4627 43.3289 12.5238 43.247 12.5999 43.1807C12.676 43.1144 12.7655 43.0651 12.8623 43.0363C12.9591 43.0074 13.0609 42.9997 13.1609 43.0135H14.6676C14.7676 42.9997 14.8695 43.0074 14.9662 43.0363C15.063 43.0651 15.1525 43.1144 15.2286 43.1807C15.3048 43.247 15.3658 43.3289 15.4076 43.4208C15.4495 43.5127 15.4711 43.6125 15.4711 43.7135C15.4711 43.8145 15.4495 43.9143 15.4076 44.0062C15.3658 44.0981 15.3048 44.18 15.2286 44.2463C15.1525 44.3127 15.063 44.3619 14.9662 44.3908C14.8695 44.4196 14.7676 44.4273 14.6676 44.4135H14.6009Z" fill="#0F172A"/>
<path d="M57.0925 44.4135H56.3992C56.2992 44.4273 56.1973 44.4196 56.1006 44.3908C56.0038 44.3619 55.9143 44.3127 55.8382 44.2463C55.762 44.18 55.701 44.0981 55.6592 44.0062C55.6173 43.9143 55.5957 43.8145 55.5957 43.7135C55.5957 43.6125 55.6173 43.5127 55.6592 43.4208C55.701 43.3289 55.762 43.247 55.8382 43.1807C55.9143 43.1144 56.0038 43.0651 56.1006 43.0363C56.1973 43.0074 56.2992 42.9997 56.3992 43.0135H57.0925C57.1926 42.9997 57.2944 43.0074 57.3912 43.0363C57.488 43.0651 57.5774 43.1144 57.6536 43.1807C57.7297 43.247 57.7908 43.3289 57.8326 43.4208C57.8744 43.5127 57.896 43.6125 57.896 43.7135C57.896 43.8145 57.8744 43.9143 57.8326 44.0062C57.7908 44.0981 57.7297 44.18 57.6536 44.2463C57.5774 44.3127 57.488 44.3619 57.3912 44.3908C57.2944 44.4196 57.1926 44.4273 57.0925 44.4135Z" fill="#0F172A"/>
<path d="M65.7341 49.0002C65.7481 48.9298 65.7481 48.8573 65.7341 48.7869L57.8141 32.7869C57.7614 32.6885 57.6887 32.6022 57.6007 32.5336V1.70689C57.6012 1.6082 57.5809 1.51052 57.5413 1.42013C57.5017 1.32973 57.4436 1.24864 57.3708 1.18207C57.2979 1.1155 57.2119 1.06492 57.1183 1.0336C57.0248 1.00228 56.9257 0.990911 56.8274 1.00022H9.84074C9.65332 1.00022 9.47358 1.07468 9.34105 1.2072C9.20853 1.33973 9.13408 1.51947 9.13408 1.70689V32.4669C9.05002 32.5306 8.98162 32.6127 8.93408 32.7069L1.00074 48.7069C0.986732 48.7773 0.986732 48.8498 1.00074 48.9202V53.5469C0.998969 53.6391 1.01559 53.7307 1.04964 53.8163C1.08369 53.902 1.13448 53.98 1.19904 54.0458C1.2636 54.1116 1.34063 54.1639 1.42563 54.1995C1.51063 54.2352 1.60189 54.2536 1.69408 54.2536H65.0407C65.1329 54.2536 65.2242 54.2352 65.3092 54.1995C65.3942 54.1639 65.4712 54.1116 65.5358 54.0458C65.6003 53.98 65.6511 53.902 65.6852 53.8163C65.7192 53.7307 65.7358 53.6391 65.7341 53.5469V49.0002ZM10.5341 2.41355H56.1207V32.2002H10.5341V2.41355ZM10.0007 33.7202H56.6674L63.9074 48.3869H2.77407L10.0007 33.7202ZM64.3341 52.9202H2.33408V49.7336H64.3341V52.9202Z" fill="#0F172A"/>
<path d="M30.774 23.587C30.6729 23.5839 30.5733 23.5613 30.4807 23.5204C30.3957 23.483 30.319 23.4289 30.2553 23.3614C30.1916 23.2938 30.1421 23.2141 30.1098 23.1271C30.0775 23.04 30.0629 22.9474 30.0671 22.8546C30.0713 22.7618 30.094 22.6708 30.134 22.587L35.254 11.427C35.3376 11.2592 35.4823 11.1297 35.6583 11.0652C35.8344 11.0008 36.0285 11.0062 36.2007 11.0804C36.2845 11.119 36.3598 11.174 36.4221 11.2421C36.4845 11.3102 36.5326 11.39 36.5636 11.4769C36.5947 11.5639 36.608 11.6561 36.603 11.7483C36.5979 11.8405 36.5744 11.9307 36.534 12.0137L31.414 23.1737C31.3594 23.2976 31.2696 23.4027 31.1559 23.4762C31.0421 23.5496 30.9094 23.5882 30.774 23.587Z" fill="#0F172A"/>
<path d="M26.0401 21.8532C25.8978 21.8544 25.7583 21.8126 25.6401 21.7332L20.0001 17.8799C19.9043 17.8184 19.8259 17.7335 19.7722 17.6331C19.7185 17.5327 19.6914 17.4203 19.6935 17.3065C19.6916 17.1909 19.7187 17.0767 19.7723 16.9742C19.8258 16.8718 19.9042 16.7843 20.0001 16.7199L25.6801 12.8799C25.7553 12.8132 25.8439 12.7634 25.9399 12.7337C26.0359 12.704 26.1371 12.6951 26.2368 12.7077C26.3365 12.7202 26.4324 12.7538 26.518 12.8063C26.6037 12.8589 26.6772 12.929 26.7336 13.0122C26.79 13.0954 26.828 13.1896 26.8451 13.2886C26.8622 13.3876 26.858 13.4891 26.8327 13.5864C26.8075 13.6836 26.7618 13.7744 26.6987 13.8526C26.6356 13.9308 26.5565 13.9946 26.4668 14.0399L21.6535 17.3065L26.4668 20.5599C26.5442 20.6121 26.6105 20.6791 26.6618 20.7571C26.7131 20.8351 26.7485 20.9225 26.7659 21.0143C26.7832 21.106 26.7822 21.2003 26.7629 21.2916C26.7436 21.383 26.7064 21.4696 26.6535 21.5465C26.5876 21.6474 26.4961 21.7289 26.3883 21.7828C26.2805 21.8367 26.1604 21.861 26.0401 21.8532Z" fill="#0F172A"/>
<path d="M40.6399 21.8539C40.5245 21.8546 40.4107 21.827 40.3084 21.7735C40.2061 21.7201 40.1185 21.6424 40.0532 21.5473C39.9497 21.3909 39.9113 21.2003 39.9461 21.016C39.981 20.8317 40.0864 20.6684 40.2399 20.5606L45.0665 17.3073L40.2399 14.0406C40.0873 13.9353 39.9822 13.7742 39.9473 13.5921C39.9124 13.4101 39.9504 13.2216 40.0532 13.0673C40.1042 12.9903 40.17 12.9243 40.2469 12.8731C40.3237 12.822 40.41 12.7866 40.5006 12.7693C40.5913 12.7519 40.6845 12.7528 40.7748 12.7719C40.8651 12.791 40.9507 12.828 41.0265 12.8806L46.6665 16.7206C46.765 16.7835 46.8459 16.8703 46.9019 16.9728C46.9578 17.0754 46.9869 17.1904 46.9865 17.3073C46.9859 17.4221 46.9563 17.5349 46.9003 17.6351C46.8444 17.7354 46.7639 17.8198 46.6665 17.8806L40.9865 21.7339C40.8839 21.8043 40.7641 21.8458 40.6399 21.8539Z" fill="#0F172A"/>
</g>
<defs>
<clipPath id="clip0_66_320">
<rect width="87" height="59" fill="white" transform="translate(0 0.666992)"/>
</clipPath>
</defs>
</svg>
