<svg width="48" height="32" viewBox="0 0 48 32" fill="none" xmlns="http://www.w3.org/2000/svg">
<g clip-path="url(#clip0_137_138)">
<path d="M26.88 32H44.64C45.2067 32 45.7491 31.801 46.24 31.52C46.7309 31.239 47.2368 30.8866 47.52 30.4C47.8032 29.9134 48.0003 29.3616 48 28.7998C47.9997 28.2381 47.8037 27.6864 47.52 27.2002L35.52 6.56C35.2368 6.0736 34.8907 5.72083 34.4 5.44C33.9093 5.15917 33.2067 4.96 32.64 4.96C32.0733 4.96 31.5307 5.15917 31.04 5.44C30.5493 5.72083 30.2032 6.0736 29.92 6.56L26.88 11.84L20.8 1.59962C20.5165 1.11325 20.1709 0.600786 19.68 0.32C19.1891 0.0392139 18.6467 0 18.08 0C17.5133 0 16.9709 0.0392139 16.48 0.32C15.9892 0.600786 15.4835 1.11325 15.2 1.59962L0.320001 27.2002C0.0363176 27.6864 0.000247811 28.2381 1.21729e-06 28.7998C-0.000245376 29.3616 0.0367446 29.9134 0.320001 30.4C0.603257 30.8864 1.10919 31.239 1.6 31.52C2.0908 31.801 2.63325 32 3.2 32H14.4C18.8379 32 22.068 30.0093 24.32 26.24L29.76 16.8L32.64 11.84L41.44 26.88H29.76L26.88 32ZM14.24 26.88H6.4L18.08 6.72L24 16.8L20.0786 23.636C18.583 26.0816 16.8781 26.88 14.24 26.88Z" fill="#00DC82"/>
</g>
<defs>
<clipPath id="clip0_137_138">
<rect width="48" height="32" fill="white"/>
</clipPath>
</defs>
</svg>
