<svg width="14" height="14" viewBox="0 0 14 14" fill="none" xmlns="http://www.w3.org/2000/svg">
<g clip-path="url(#clip0_137_135)">
<path fill-rule="evenodd" clip-rule="evenodd" d="M2.04135 0.615849C1.85797 0.627204 1.68629 0.709804 1.56297 0.846012C1.43966 0.98222 1.37448 1.16124 1.38135 1.34485L1.81535 12.8998C1.82935 13.2668 2.12135 13.5598 2.48735 13.5768L11.8824 13.9988H11.9144C12.1009 13.9988 12.2798 13.9248 12.4118 13.793C12.5438 13.6612 12.6181 13.4824 12.6184 13.2958V0.703849C12.6184 0.688849 12.6184 0.673849 12.6164 0.659849C12.6048 0.47355 12.5197 0.299474 12.3798 0.175895C12.2399 0.0523173 12.0567 -0.0106461 11.8704 0.000849174L11.0974 0.0498492L11.1544 1.66485C11.155 1.68486 11.15 1.70466 11.1398 1.72189C11.1296 1.73913 11.1147 1.75309 11.0968 1.76213C11.0789 1.77117 11.0589 1.77491 11.0389 1.77291C11.019 1.77091 11.0001 1.76326 10.9844 1.75085L10.4644 1.34085L9.84735 1.80885C9.83148 1.82078 9.81255 1.82796 9.79277 1.82956C9.77298 1.83117 9.75314 1.82713 9.73555 1.81792C9.71797 1.80871 9.70335 1.7947 9.69341 1.77752C9.68346 1.76034 9.67859 1.74069 9.67935 1.72085L9.74535 0.133849L2.04135 0.615849ZM10.0444 5.36285C9.79735 5.55485 7.95235 5.68685 7.95235 5.41285C7.99235 4.36785 7.52335 4.32185 7.26335 4.32185C7.01635 4.32185 6.60135 4.39685 6.60135 4.95585C6.60135 5.52585 7.20835 5.84885 7.92135 6.22585C8.93535 6.76385 10.1614 7.41385 10.1614 9.04885C10.1614 10.6168 8.88835 11.4818 7.26335 11.4818C5.58735 11.4818 4.12235 10.8038 4.28735 8.45185C4.35235 8.17685 6.48435 8.24185 6.48435 8.45185C6.45835 9.42285 6.67935 9.70785 7.23735 9.70785C7.66735 9.70785 7.86135 9.47185 7.86135 9.07385C7.86135 8.47185 7.22835 8.11585 6.50035 7.70685C5.51335 7.15285 4.35235 6.50185 4.35235 5.00685C4.35235 3.51285 5.37935 2.51785 7.21235 2.51785C9.04435 2.51785 10.0444 3.49785 10.0444 5.36285Z" fill="#FF4785"/>
</g>
<defs>
<clipPath id="clip0_137_135">
<rect width="14" height="14" fill="white"/>
</clipPath>
</defs>
</svg>
