<svg width="19" height="18" viewBox="0 0 19 18" fill="none" xmlns="http://www.w3.org/2000/svg">
<path fill-rule="evenodd" clip-rule="evenodd" d="M10.5878 0.251698C9.93681 -0.0803184 9.05464 -0.0854414 8.39841 0.24572C6.10476 1.73726 3.6796 3.15909 1.60231 4.58476C1.29314 4.83439 1.07373 5.19713 1.07747 5.62411C1.0812 6.04933 1.30508 6.40722 1.61237 6.65274C3.6796 7.89854 6.10476 9.32037 8.34769 10.9529C8.99872 11.2849 9.88089 11.29 10.5371 10.9588C12.8952 9.32037 13.8653 8.84643 17.3332 6.6198C17.6424 6.37017 17.8618 6.00743 17.8581 5.58046C17.8543 5.15524 17.6305 4.79734 17.3232 4.55183C15.3204 3.15909 12.8952 1.73726 10.5878 0.251698ZM9.06611 1.50902C9.2986 1.3917 9.68051 1.39281 9.91458 1.51218C11.9252 2.68515 13.8653 4.10698 16.3238 5.59018C14.3503 6.95065 12.4102 8.37248 9.86942 9.69554C9.63693 9.81286 9.25502 9.81175 9.02095 9.69238C6.70197 8.37248 4.64966 6.95065 2.61175 5.61438C4.64966 4.10698 6.10476 3.15909 9.06611 1.50902Z" fill="#23A5A4"/>
<path d="M18.3895 9.10286C18.6023 9.43591 18.4985 9.87446 18.1577 10.0824L12.2332 13.6966C11.4401 14.0598 10.4642 14.5337 9.5 14.5338C8.53582 14.5338 7.55986 14.0598 6.70197 13.6969L0.842448 10.1236C0.501572 9.91574 0.397696 9.47721 0.610436 9.14413C0.823176 8.81104 1.27197 8.70954 1.61285 8.91742L7.47237 12.4907C8.00023 12.8126 8.7497 13.112 9.5 13.1119C10.2503 13.1119 10.9349 12.8125 11.4626 12.4905L17.3871 8.87632C17.7279 8.66838 18.1767 8.76981 18.3895 9.10286Z" fill="#23A5A4"/>
<path d="M18.3895 12.6619C18.6023 12.9949 18.4985 13.4334 18.1577 13.6414L13.0271 16.7722C11.4401 17.531 10.7178 17.9999 9.46764 18C8.2175 18.0001 6.5898 17.057 5.90793 16.7726L0.842374 13.6826C0.501523 13.4747 0.397702 13.0362 0.610482 12.7031C0.823263 12.3701 1.27207 12.2686 1.61292 12.4765L6.67848 15.5665C7.42836 16.0239 8.43142 16.4296 9.46764 16.4295C10.5039 16.4295 11.5067 16.0237 12.2564 15.5662L17.387 12.4354C17.7278 12.2275 18.1766 12.3288 18.3895 12.6619Z" fill="#23A5A4"/>
</svg>
