<svg width="60" height="61" viewBox="0 0 60 61" fill="none" xmlns="http://www.w3.org/2000/svg">
<g clip-path="url(#clip0_66_298)">
<path d="M30.9375 43.792H29.0625V45.667H30.9375V43.792Z" fill="black"/>
<path d="M27.1875 43.792H25.3125V45.667H27.1875V43.792Z" fill="black"/>
<path d="M34.6875 43.792H32.8125V45.667H34.6875V43.792Z" fill="black"/>
<path d="M7.5 4.41699H5.625V6.29199H7.5V4.41699Z" fill="black"/>
<path d="M11.25 4.41699H9.375V6.29199H11.25V4.41699Z" fill="black"/>
<path d="M15 4.41699H13.125V6.29199H15V4.41699Z" fill="black"/>
<path d="M10.3125 30.667H17.8125C18.33 30.667 18.75 31.087 18.75 31.6045C18.75 32.122 18.33 32.542 17.8125 32.542H15C13.4494 32.542 12.1875 33.8039 12.1875 35.3545C12.1875 36.9051 13.4494 38.167 15 38.167H29.0625C29.3119 38.167 29.5509 38.0676 29.7272 37.8904C29.9681 37.6486 35.625 31.9064 35.625 26.917C35.625 22.2201 33.1716 19.417 29.0625 19.417C24.9534 19.417 22.5 22.2201 22.5 26.917C22.5 30.3764 25.2169 34.1929 26.9644 36.292H15C14.4825 36.292 14.0625 35.872 14.0625 35.3545C14.0625 34.837 14.4825 34.417 15 34.417H17.8125C19.3631 34.417 20.625 33.1551 20.625 31.6045C20.625 30.0539 19.3631 28.792 17.8125 28.792H12.4106C14.1581 26.6929 16.875 22.8764 16.875 19.417C16.875 14.7201 14.4216 11.917 10.3125 11.917C6.20344 11.917 3.75 14.7201 3.75 19.417C3.75 24.4064 9.40688 30.1486 9.64781 30.3904C9.82406 30.5676 10.0631 30.667 10.3125 30.667ZM29.0625 21.292C32.0859 21.292 33.75 23.2898 33.75 26.917C33.75 30.2198 30.4959 34.2398 29.0625 35.8504C27.6291 34.2389 24.375 30.2198 24.375 26.917C24.375 23.2898 26.0391 21.292 29.0625 21.292ZM10.3125 13.792C13.3359 13.792 15 15.7898 15 19.417C15 22.7198 11.7459 26.7398 10.3125 28.3504C8.87906 26.7398 5.625 22.7198 5.625 19.417C5.625 15.7898 7.28906 13.792 10.3125 13.792Z" fill="black"/>
<path d="M13.125 18.4795C13.125 16.9289 11.8631 15.667 10.3125 15.667C8.76187 15.667 7.5 16.9289 7.5 18.4795C7.5 20.0301 8.76187 21.292 10.3125 21.292C11.8631 21.292 13.125 20.0301 13.125 18.4795ZM9.375 18.4795C9.375 17.962 9.795 17.542 10.3125 17.542C10.83 17.542 11.25 17.962 11.25 18.4795C11.25 18.997 10.83 19.417 10.3125 19.417C9.795 19.417 9.375 18.997 9.375 18.4795Z" fill="black"/>
<path d="M31.875 25.9795C31.875 24.4289 30.6131 23.167 29.0625 23.167C27.5119 23.167 26.25 24.4289 26.25 25.9795C26.25 27.5301 27.5119 28.792 29.0625 28.792C30.6131 28.792 31.875 27.5301 31.875 25.9795ZM28.125 25.9795C28.125 25.462 28.545 25.042 29.0625 25.042C29.58 25.042 30 25.462 30 25.9795C30 26.497 29.58 26.917 29.0625 26.917C28.545 26.917 28.125 26.497 28.125 25.9795Z" fill="black"/>
<path d="M55.3125 0.666992H4.6875C2.10281 0.666992 0 2.88699 0 5.47168V44.7295C0 47.3142 2.10281 49.417 4.6875 49.417H21.1472L19.0378 55.042H13.125C12.6066 55.042 12.1875 55.4611 12.1875 55.9795C12.1875 58.5642 14.2903 60.667 16.875 60.667H43.125C45.7097 60.667 47.8125 58.5642 47.8125 55.9795C47.8125 55.4611 47.3934 55.042 46.875 55.042H40.9622L38.8528 49.417H55.3125C57.8972 49.417 60 47.3142 60 44.7295V5.47168C60 2.88699 57.8972 0.666992 55.3125 0.666992ZM4.6875 2.54199H55.3125C56.8631 2.54199 58.125 3.92105 58.125 5.47168V8.16699H3.75V10.042H58.125V40.042H1.875V5.47168C1.875 3.92105 3.13687 2.54199 4.6875 2.54199ZM43.125 58.792H16.875C15.6525 58.792 14.61 58.0082 14.2228 56.917H19.6875H40.3125H45.7772C45.39 58.0082 44.3475 58.792 43.125 58.792ZM38.9597 55.042H21.0403L23.1497 49.417H36.8494L38.9597 55.042ZM55.3125 47.542H37.5H22.5H4.6875C3.13687 47.542 1.875 46.2801 1.875 44.7295V41.917H58.125V44.7295C58.125 46.2801 56.8631 47.542 55.3125 47.542Z" fill="black"/>
<path d="M38.4375 23.167H45C45.5184 23.167 45.9375 22.7479 45.9375 22.2295V18.4795C45.9375 17.9611 45.5184 17.542 45 17.542H38.4375C37.9191 17.542 37.5 17.9611 37.5 18.4795V22.2295C37.5 22.7479 37.9191 23.167 38.4375 23.167ZM39.375 19.417H44.0625V21.292H39.375V19.417Z" fill="black"/>
<path d="M48.75 23.167H55.3125C55.8309 23.167 56.25 22.7479 56.25 22.2295V18.4795C56.25 17.9611 55.8309 17.542 55.3125 17.542H48.75C48.2316 17.542 47.8125 17.9611 47.8125 18.4795V22.2295C47.8125 22.7479 48.2316 23.167 48.75 23.167ZM49.6875 19.417H54.375V21.292H49.6875V19.417Z" fill="black"/>
<path d="M56.25 25.042H37.5V26.917H56.25V25.042Z" fill="black"/>
<path d="M56.25 28.792H37.5V30.667H56.25V28.792Z" fill="black"/>
<path d="M56.25 32.542H37.5V34.417H56.25V32.542Z" fill="black"/>
<path d="M40.3125 12.8545H37.5V14.7295H40.3125V12.8545Z" fill="black"/>
<path d="M45.9375 12.8545H42.1875V14.7295H45.9375V12.8545Z" fill="black"/>
<path d="M56.25 12.8545H47.8125V14.7295H56.25V12.8545Z" fill="black"/>
</g>
<defs>
<clipPath id="clip0_66_298">
<rect width="60" height="60" fill="white" transform="translate(0 0.666992)"/>
</clipPath>
</defs>
</svg>
