<svg width="63" height="61" viewBox="0 0 63 61" fill="none" xmlns="http://www.w3.org/2000/svg">
<path fill-rule="evenodd" clip-rule="evenodd" d="M3.81878 0.666992H58.5141C59.5537 0.666992 60.5071 1.09806 61.1969 1.78778L61.2019 1.79285L61.207 1.79792L61.2121 1.80299C61.9018 2.49778 62.3278 3.44613 62.3278 4.48577V56.8634C62.3278 57.9132 61.8967 58.8666 61.207 59.5564C60.5173 60.2461 59.5639 60.6771 58.5141 60.6771H3.81878C2.77914 60.6771 1.82571 60.2511 1.13093 59.5564L1.12586 59.5513L1.12078 59.5462L1.11571 59.5411C0.425999 58.8463 0 57.898 0 56.8584V4.47563C0 3.42585 0.425999 2.47242 1.11571 1.78271C1.15628 1.74213 1.19686 1.70156 1.2425 1.66606C1.93221 1.04735 2.83493 0.666992 3.81878 0.666992ZM14.6209 28.8438L17.7804 28.646C17.8463 29.1582 17.9883 29.5487 18.2013 29.8125C18.5462 30.2486 19.033 30.4667 19.672 30.4667C20.1437 30.4667 20.5139 30.3551 20.7675 30.132C21.0261 29.9088 21.1529 29.6502 21.1529 29.356C21.1529 29.0771 21.0312 28.8286 20.7878 28.6055C20.5443 28.3823 19.9763 28.1795 19.0888 27.9817C17.6283 27.6571 16.5937 27.221 15.9699 26.6732C15.3411 26.1306 15.0317 25.4409 15.0317 24.599C15.0317 24.0462 15.194 23.5239 15.5135 23.032C15.833 22.54 16.3148 22.1495 16.9588 21.8706C17.6029 21.5917 18.4853 21.4497 19.6061 21.4497C20.9805 21.4497 22.0303 21.7033 22.7504 22.2205C23.4705 22.7328 23.9016 23.5492 24.0385 24.665L20.9095 24.8526C20.8283 24.3657 20.6508 24.0057 20.3871 23.7876C20.1183 23.5645 19.7481 23.4529 19.2815 23.4529C18.8961 23.4529 18.602 23.534 18.4042 23.6963C18.2064 23.8586 18.11 24.0615 18.11 24.2948C18.11 24.4672 18.1912 24.6193 18.3484 24.7562C18.5005 24.8982 18.8708 25.0301 19.459 25.1518C20.9145 25.4662 21.9542 25.7857 22.583 26.1052C23.2119 26.4247 23.6734 26.8203 23.9574 27.297C24.2414 27.7687 24.3885 28.3012 24.3885 28.8895C24.3885 29.5792 24.1958 30.2182 23.8154 30.8014C23.43 31.3846 22.9025 31.8258 22.2128 32.1301C21.5282 32.4293 20.666 32.5815 19.6213 32.5815C17.7906 32.5815 16.5227 32.2265 15.8178 31.5215C15.1128 30.8217 14.7122 29.9291 14.6209 28.8438ZM26.0823 21.6323H34.9877V23.9347H29.4244V25.6488H34.582V27.8447H29.4244V29.9646H35.1551V32.404H26.0823V21.6323ZM36.5548 27.0282C36.5548 25.2685 37.0417 23.8992 38.0255 22.9255C39.0043 21.9467 40.3685 21.4548 42.1182 21.4548C43.9084 21.4548 45.2929 21.9365 46.2615 22.895C47.2302 23.8586 47.717 25.2076 47.717 26.937C47.717 28.1947 47.504 29.2242 47.0831 30.0305C46.6571 30.8369 46.0434 31.4607 45.2472 31.912C44.4459 32.3583 43.4469 32.5815 42.25 32.5815C41.0379 32.5815 40.0287 32.3887 39.2325 32.0033C38.4363 31.6128 37.7922 31.0042 37.2952 30.1675C36.8033 29.3357 36.5548 28.286 36.5548 27.0282ZM39.8817 27.0333C39.8817 28.1186 40.0845 28.8996 40.4902 29.3763C40.896 29.848 41.4487 30.0863 42.1435 30.0863C42.8586 30.0863 43.4164 29.853 43.8069 29.3915C44.2025 28.925 44.3952 28.0932 44.3952 26.8862C44.3952 25.872 44.1873 25.1315 43.7816 24.665C43.3708 24.1984 42.818 23.9651 42.1131 23.9651C41.4437 23.9651 40.901 24.2035 40.4953 24.6751C40.0845 25.1518 39.8817 25.9379 39.8817 27.0333ZM33.375 50.7473C32.5737 50.7473 31.9246 50.0424 31.9246 49.1701C31.9246 48.2978 32.5737 47.5929 33.375 47.5929H51.2366C52.0379 47.5929 52.687 48.2978 52.687 49.1701C52.687 50.0424 52.0379 50.7473 51.2366 50.7473H33.375ZM10.5688 50.7473C9.7777 50.7473 9.13363 50.0424 9.13363 49.1701C9.13363 48.2978 9.7777 47.5929 10.5688 47.5929H27.127C27.9182 47.5929 28.5623 48.2978 28.5623 49.1701C28.5623 50.0424 27.9182 50.7473 27.127 50.7473H10.5688ZM9.99577 43.8552C9.20463 43.8552 8.56056 43.1503 8.56056 42.278C8.56056 41.4057 9.20463 40.7008 9.99577 40.7008H26.554C27.3451 40.7008 27.9892 41.4057 27.9892 42.278C27.9892 43.1503 27.3451 43.8552 26.554 43.8552H9.99577ZM33.375 43.8552C32.5737 43.8552 31.9246 43.1503 31.9246 42.278C31.9246 41.4057 32.5737 40.7008 33.375 40.7008H51.2366C52.0379 40.7008 52.687 41.4057 52.687 42.278C52.687 43.1503 52.0379 43.8552 51.2366 43.8552H33.375ZM8.93078 18.3003H52.5146V35.3657H8.93078V18.3003ZM58.8843 14.3243C58.7676 14.3446 58.6409 14.3548 58.5191 14.3548H3.82385C3.69707 14.3548 3.57535 14.3446 3.45871 14.3243V56.8533C3.45871 56.9547 3.49928 57.046 3.56014 57.1119L3.56521 57.117C3.63114 57.1829 3.72242 57.2184 3.82385 57.2184H58.5191C58.6155 57.2184 58.7068 57.1779 58.7778 57.1069C58.8437 57.0409 58.8894 56.9496 58.8894 56.8482L58.8843 14.3243ZM25.4281 5.58627C26.7974 5.58627 27.903 6.69691 27.903 8.06113C27.903 9.43041 26.7923 10.536 25.4281 10.536C24.0588 10.536 22.9533 9.42534 22.9533 8.06113C22.9533 6.69691 24.0639 5.58627 25.4281 5.58627ZM16.7712 5.58627C18.1405 5.58627 19.246 6.69691 19.246 8.06113C19.246 9.43041 18.1354 10.536 16.7712 10.536C15.4019 10.536 14.2963 9.42534 14.2963 8.06113C14.2963 6.69691 15.407 5.58627 16.7712 5.58627ZM8.11935 5.58627C9.48863 5.58627 10.5942 6.69691 10.5942 8.06113C10.5942 9.43041 9.48356 10.536 8.11935 10.536C6.75006 10.536 5.64449 9.42534 5.64449 8.06113C5.64449 6.69691 6.75006 5.58627 8.11935 5.58627Z" fill="black"/>
</svg>
