<svg width="60" height="61" viewBox="0 0 60 61" fill="none" xmlns="http://www.w3.org/2000/svg">
<path d="M59.6988 11.5906L49.0753 0.967154C48.6751 0.566938 48.027 0.566938 47.6268 0.967154L28.7258 19.8675L17.3155 8.64093C17.3066 8.63205 17.295 8.6259 17.2855 8.6177C17.2479 8.58356 17.2076 8.55282 17.1646 8.52414C17.1441 8.51048 17.125 8.49545 17.1038 8.48316C17.0532 8.45448 16.9993 8.43194 16.9433 8.41145C16.9289 8.40667 16.9167 8.39779 16.9023 8.39301L1.44822 3.56446C1.08625 3.45177 0.688085 3.54875 0.418315 3.81784C0.148544 4.08761 0.0508808 4.48441 0.164936 4.84775L4.99417 20.3012C5.02353 20.3947 5.06861 20.4808 5.12256 20.5614C5.13964 20.5873 5.16013 20.6085 5.17925 20.6324C5.20452 20.6638 5.22501 20.698 5.25369 20.726L16.6523 31.9409L0.300162 48.2937C-0.100054 48.694 -0.100054 49.3421 0.300162 49.7423L10.9243 60.3672C11.1162 60.5591 11.3771 60.667 11.649 60.667C11.9208 60.667 12.181 60.5591 12.3736 60.3672L28.8945 43.8463L42.2614 56.8369C42.4321 57.0015 42.6466 57.0814 42.8658 57.1053C44.4162 58.543 46.4159 59.3386 48.5426 59.3386C50.7773 59.3386 52.8787 58.4685 54.4584 56.8882C57.6772 53.6693 57.7134 48.4618 54.5793 45.1904C54.5295 45.0203 54.4407 44.8632 54.3109 44.7382L40.905 31.835L59.6995 13.0399C60.099 12.639 60.099 11.9909 59.6988 11.5906ZM15.3301 10.0492L14.5645 12.6513L10.9954 13.701C10.6614 13.7993 10.3998 14.0602 10.3015 14.3949L9.25244 17.9634L6.64967 18.729L2.70419 6.10372L15.3301 10.0492ZM11.6483 58.194L2.47267 49.0177L6.33277 45.1576L10.9202 49.745C11.1203 49.9452 11.3826 50.0449 11.6449 50.0449C11.9071 50.0449 12.1694 49.9452 12.3695 49.745C12.7697 49.3448 12.7697 48.6967 12.3695 48.2965L7.78202 43.709L11.541 39.95L16.1285 44.5375C16.3286 44.7376 16.5909 44.8373 16.8531 44.8373C17.1154 44.8373 17.3777 44.7376 17.5778 44.5375C17.978 44.1372 17.978 43.4891 17.5778 43.0889L12.9903 38.5014L18.1187 33.3731L27.4254 42.4182L11.6483 58.194ZM53.0078 55.4389C50.7151 57.7303 47.0879 57.8867 44.6101 55.9136L53.4832 47.0405C55.4562 49.519 55.2999 53.1476 53.0078 55.4389ZM42.9642 54.6631L18.7586 31.1384L7.93227 20.4869L10.367 19.7712C10.701 19.6728 10.9626 19.4119 11.0609 19.0773L12.1106 15.5088L15.6798 14.4591C16.0138 14.3607 16.2753 14.0998 16.3737 13.7652L17.099 11.3004L38.712 32.5651L52.1384 45.4895L42.9642 54.6631ZM39.436 30.4063L30.1859 21.3044L35.4441 16.0463L40.0315 20.6338C40.2316 20.8339 40.4939 20.9336 40.7562 20.9336C41.0184 20.9336 41.2807 20.8339 41.4808 20.6338C41.881 20.2342 41.881 19.5847 41.4808 19.1852L36.8933 14.5977L41.1646 10.3265L45.752 14.9139C45.9521 15.114 46.2144 15.2138 46.4767 15.2138C46.7389 15.2138 47.0012 15.114 47.2013 14.9139C47.6015 14.5144 47.6015 13.8649 47.2013 13.4654L42.6138 8.87791L48.3521 3.13966L57.5263 12.3153L39.436 30.4063Z" fill="black"/>
</svg>
