<svg width="69" height="61" viewBox="0 0 69 61" fill="none" xmlns="http://www.w3.org/2000/svg">
<path d="M34.3475 0.666992C40.8546 0.666992 46.8922 2.7466 51.8162 6.28864C56.8609 9.92459 60.7383 15.0767 62.7643 21.1008C62.9253 21.5972 62.6704 22.1205 62.1739 22.2815C62.0666 22.3217 61.9593 22.3351 61.8519 22.3351H6.82958C6.30632 22.3351 5.8904 21.9192 5.8904 21.396C5.8904 21.2618 5.91723 21.1411 5.9709 21.0203C7.99684 15.0364 11.8609 9.89776 16.8922 6.28864C21.8162 2.7466 27.8403 0.666992 34.3609 0.666992H34.3475ZM50.716 7.80474C46.114 4.49078 40.4521 2.54535 34.3475 2.54535C28.2294 2.54535 22.5809 4.49078 17.9789 7.80474C13.5916 10.9577 10.1569 15.345 8.15784 20.4568H60.5371C58.5514 15.345 55.1033 10.9577 50.716 7.80474ZM62.724 40.3003C60.6981 46.2842 56.834 51.4228 51.8027 55.0319C46.8788 58.574 40.8546 60.6536 34.334 60.6536C27.8269 60.6536 21.7893 58.574 16.8654 55.0319C11.8206 51.396 7.94317 46.2439 5.91723 40.2198C5.75623 39.7233 6.01115 39.2001 6.50757 39.0391C6.61491 38.9988 6.72224 38.9854 6.82958 38.9854H61.8519C62.3752 38.9854 62.7911 39.4013 62.7911 39.9246C62.7911 40.0588 62.7643 40.1795 62.7106 40.3003H62.724ZM50.716 53.5158C55.1033 50.3629 58.538 45.9756 60.5371 40.8638H8.15784C10.1435 45.9756 13.5916 50.3629 17.9789 53.5158C22.5809 56.8298 28.2428 58.7752 34.3475 58.7752C40.4655 58.7752 46.114 56.8298 50.716 53.5158Z" fill="black"/>
<path d="M57.5054 49.6919C54.7147 53.0998 51.1861 55.8771 47.1745 57.7822C43.2836 59.6338 38.9365 60.6669 34.348 60.6669C29.7594 60.6669 25.4124 59.6338 21.5215 57.7822C17.4831 55.8636 13.941 53.0595 11.1369 49.6382C10.8149 49.2357 10.8686 48.6454 11.2711 48.3234C11.365 48.2429 11.4857 48.1892 11.5931 48.149C15.1619 46.7 18.8784 45.5864 22.7022 44.835C26.4857 44.0971 30.3766 43.708 34.348 43.708C38.3194 43.708 42.2237 44.0971 45.9938 44.835C49.8578 45.5864 53.6011 46.7268 57.1834 48.1892C57.6664 48.3905 57.8945 48.9271 57.6933 49.4102C57.653 49.5309 57.5859 49.6248 57.492 49.7053L57.5054 49.6919ZM46.3695 56.0917C49.7639 54.4817 52.7961 52.2009 55.2648 49.4236C52.1655 48.2429 48.9455 47.3037 45.6181 46.6597C41.9687 45.9486 38.1852 45.5729 34.3346 45.5729C30.4705 45.5729 26.7004 45.9486 23.051 46.6597C19.7237 47.3171 16.5036 48.2429 13.4043 49.4236C15.8865 52.2009 18.9052 54.4683 22.2997 56.0917C25.9491 57.8225 30.0278 58.7885 34.3346 58.7885C38.6414 58.7885 42.7201 57.8225 46.3695 56.0917Z" fill="black"/>
<path d="M55.2765 11.9105C52.7944 9.13326 49.7756 6.86582 46.3812 5.24238C42.7318 3.51161 38.6531 2.5456 34.3463 2.5456C30.0395 2.5456 25.9608 3.51161 22.3114 5.24238C18.917 6.8524 15.8848 9.13326 13.4161 11.9105C16.5153 13.0912 19.7354 14.0304 23.0628 14.6744C26.7121 15.3855 30.4957 15.7612 34.3463 15.7612C38.2103 15.7612 41.9805 15.3855 45.6298 14.6744C48.9572 14.017 52.1772 13.0912 55.2765 11.9105ZM47.1728 3.55186C51.1844 5.45705 54.713 8.23433 57.5037 11.6422C57.5842 11.7227 57.6513 11.83 57.705 11.9374C57.9062 12.4204 57.6647 12.9571 57.1951 13.1583C53.5994 14.6207 49.8561 15.7612 46.0055 16.5125C42.222 17.2504 38.3311 17.6395 34.3597 17.6395C30.3883 17.6395 26.484 17.2504 22.7139 16.5125C18.8901 15.7612 15.1737 14.6476 11.6048 13.1986C11.484 13.1583 11.3767 13.1046 11.2828 13.0241C10.8803 12.7021 10.8266 12.1118 11.1486 11.7093C13.9527 8.27458 17.4948 5.48388 21.5332 3.56528C25.4241 1.71376 29.7712 0.680664 34.3597 0.680664C38.9483 0.680664 43.2953 1.71376 47.1862 3.56528L47.1728 3.55186Z" fill="black"/>
<path d="M34.347 0.666992C37.9964 0.666992 41.3237 2.8271 44.0205 6.48989C46.677 10.1258 48.7164 15.2645 49.7763 21.235C49.8702 21.7448 49.5214 22.2278 49.0116 22.3217C48.9579 22.3351 48.8908 22.3351 48.8371 22.3351H19.8434C19.3201 22.3351 18.9042 21.9192 18.9042 21.396C18.9042 21.3289 18.9176 21.2618 18.9311 21.1947C19.991 15.2377 22.0303 10.1258 24.6735 6.50331C27.3568 2.84052 30.6976 0.680409 34.347 0.680409V0.666992ZM42.5044 7.60349C40.1699 4.4237 37.3523 2.54535 34.347 2.54535C31.3416 2.54535 28.5241 4.4237 26.1896 7.60349C23.855 10.7833 22.0303 15.2511 20.9838 20.4702H47.7235C46.677 15.2511 44.8389 10.7967 42.5178 7.60349H42.5044ZM49.7629 40.1393C48.703 46.0829 46.6636 51.2081 44.0205 54.8307C41.3371 58.4935 37.9964 60.6536 34.347 60.6536C30.6976 60.6536 27.3702 58.4935 24.6735 54.8307C22.0169 51.1947 19.9776 46.0561 18.9176 40.0856C18.8237 39.5758 19.1726 39.0928 19.6824 38.9988C19.7361 38.9854 19.8031 38.9854 19.8568 38.9854H48.8506C49.3738 38.9854 49.7897 39.4013 49.7897 39.9246C49.7897 39.9917 49.7763 40.0588 49.7629 40.1258V40.1393ZM42.5044 53.7305C44.8389 50.5507 46.6636 46.0829 47.7101 40.8638H20.9704C22.0169 46.0829 23.855 50.5373 26.1761 53.7305C28.5107 56.9103 31.3282 58.7886 34.3336 58.7886C37.3389 58.7886 40.1565 56.9103 42.491 53.7305H42.5044Z" fill="black"/>
<path d="M0.939177 20.457H67.7549H68.6941V21.3962V39.9248V40.864H67.7549H0.939177H0V39.9248V21.3962V20.457H0.939177ZM66.8292 22.3354H1.87835V38.9991H66.8292V22.3354Z" fill="black"/>
<path d="M9.17672 36.1146L5.83594 25.2202H7.74113L9.47189 31.5127L10.1159 33.8472C10.1427 33.7265 10.3306 32.9751 10.6794 31.5932L12.4102 25.2068H14.3154L15.9522 31.5261L16.5023 33.6057L17.1195 31.4993L18.9844 25.1934H20.7823L17.3744 36.0878H15.4558L13.725 29.5538L13.2957 27.6889L11.0953 36.0744H9.16331L9.17672 36.1146ZM30.2009 36.1146L26.8601 25.2202H28.7653L30.496 31.5127L31.1401 33.8472C31.1669 33.7265 31.3547 32.9751 31.7036 31.5932L33.4343 25.2068H35.3395L36.9764 31.5261L37.5265 33.6057L38.1436 31.4993L40.0086 25.1934H41.8064L38.3986 36.0878H36.4799L34.7492 29.5538L34.3198 27.6889L32.1195 36.0744H30.1875L30.2009 36.1146ZM51.225 36.1146L47.8842 25.2202H49.7894L51.5202 31.5127L52.1642 33.8472C52.191 33.7265 52.3789 32.9751 52.7277 31.5932L54.4585 25.2068H56.3637L58.0005 31.5261L58.5506 33.6057L59.1678 31.4993L61.0327 25.1934H62.8306L59.4227 36.0878H57.5041L55.7733 29.5538L55.344 27.6889L53.1436 36.0744H51.2116L51.225 36.1146Z" fill="black"/>
</svg>
